Tirra-Black.ufo
<glyph name="ampersand" format="2">
  <advance width="1403"/>
  <unicode hex="0026"/>
  <outline>
    <contour>
      <point x="510" y="-25" type="curve" smooth="yes"/>
      <point x="738" y="-25"/>
      <point x="916" y="69"/>
      <point x="1044" y="211" type="curve" smooth="yes"/>
      <point x="1194" y="379"/>
      <point x="1294" y="569"/>
      <point x="1357" y="776" type="curve"/>
      <point x="1078" y="776" type="line"/>
      <point x="1030" y="597"/>
      <point x="943" y="455"/>
      <point x="835" y="348" type="curve" smooth="yes"/>
      <point x="747" y="261"/>
      <point x="645" y="206"/>
      <point x="548" y="206" type="curve" smooth="yes"/>
      <point x="424" y="206"/>
      <point x="341" y="278"/>
      <point x="341" y="384" type="curve" smooth="yes"/>
      <point x="341" y="639"/>
      <point x="928" y="726"/>
      <point x="928" y="1091" type="curve" smooth="yes"/>
      <point x="928" y="1279"/>
      <point x="797" y="1401"/>
      <point x="593" y="1401" type="curve" smooth="yes"/>
      <point x="365" y="1401"/>
      <point x="219" y="1237"/>
      <point x="219" y="1042" type="curve" smooth="yes"/>
      <point x="219" y="768"/>
      <point x="523" y="390"/>
      <point x="865" y="160" type="curve" smooth="yes"/>
      <point x="1006" y="67"/>
      <point x="1154" y="2"/>
      <point x="1291" y="-25" type="curve"/>
      <point x="1363" y="219" type="line"/>
      <point x="1275" y="236"/>
      <point x="1163" y="284"/>
      <point x="1049" y="354" type="curve" smooth="yes"/>
      <point x="768" y="525"/>
      <point x="472" y="823"/>
      <point x="472" y="1044" type="curve" smooth="yes"/>
      <point x="472" y="1142"/>
      <point x="527" y="1199"/>
      <point x="599" y="1199" type="curve" smooth="yes"/>
      <point x="664" y="1199"/>
      <point x="694" y="1156"/>
      <point x="694" y="1091" type="curve" smooth="yes"/>
      <point x="694" y="821"/>
      <point x="52" y="814"/>
      <point x="52" y="367" type="curve" smooth="yes"/>
      <point x="52" y="156"/>
      <point x="213" y="-25"/>
    </contour>
  </outline>
</glyph>
<glyph name="parenleft" format="2">
  <advance width="721"/>
  <unicode hex="0028"/>
  <outline>
    <contour>
      <point x="430" y="-377" type="curve"/>
      <point x="622" y="-297" type="line"/>
      <point x="466" y="-25"/>
      <point x="398" y="287"/>
      <point x="398" y="586" type="curve" smooth="yes"/>
      <point x="398" y="886"/>
      <point x="466" y="1199"/>
      <point x="622" y="1471" type="curve"/>
      <point x="430" y="1551" type="line"/>
      <point x="255" y="1262"/>
      <point x="151" y="958"/>
      <point x="151" y="586" type="curve" smooth="yes"/>
      <point x="151" y="215"/>
      <point x="255" y="-88"/>
    </contour>
  </outline>
</glyph>
<glyph name="parenright" format="2">
  <advance width="721"/>
  <unicode hex="0029"/>
  <outline>
    <contour>
      <point x="291" y="-377" type="line"/>
      <point x="468" y="-88"/>
      <point x="569" y="215"/>
      <point x="569" y="586" type="curve" smooth="yes"/>
      <point x="569" y="958"/>
      <point x="468" y="1262"/>
      <point x="291" y="1551" type="curve"/>
      <point x="101" y="1471" type="line"/>
      <point x="255" y="1199"/>
      <point x="325" y="886"/>
      <point x="325" y="586" type="curve" smooth="yes"/>
      <point x="325" y="287"/>
      <point x="255" y="-25"/>
      <point x="101" y="-297" type="curve"/>
    </contour>
  </outline>
</glyph>
<glyph name="asterisk" format="2">
  <advance width="960"/>
  <unicode hex="002A"/>
  <outline>
    <contour>
      <point x="312" y="743" type="line"/>
      <point x="481" y="930" type="line"/>
      <point x="648" y="743" type="line"/>
      <point x="776" y="835" type="line"/>
      <point x="650" y="1053" type="line"/>
      <point x="880" y="1154" type="line"/>
      <point x="829" y="1306" type="line"/>
      <point x="586" y="1253" type="line"/>
      <point x="559" y="1503" type="line"/>
      <point x="401" y="1503" type="line"/>
      <point x="373" y="1253" type="line"/>
      <point x="130" y="1306" type="line"/>
      <point x="82" y="1154" type="line"/>
      <point x="308" y="1053" type="line"/>
      <point x="183" y="835" type="line"/>
    </contour>
  </outline>
</glyph>
<glyph name="plus" format="2">
  <advance width="1112"/>
  <unicode hex="002B"/>
  <outline>
    <contour>
      <point x="443" y="198" type="line"/>
      <point x="667" y="198" type="line"/>
      <point x="667" y="588" type="line"/>
      <point x="1040" y="588" type="line"/>
      <point x="1040" y="804" type="line"/>
      <point x="667" y="804" type="line"/>
      <point x="667" y="1194" type="line"/>
      <point x="443" y="1194" type="line"/>
      <point x="443" y="804" type="line"/>
      <point x="71" y="804" type="line"/>
      <point x="71" y="588" type="line"/>
      <point x="443" y="588" type="line"/>
    </contour>
  </outline>
</glyph>
<glyph name="slash" format="2">
  <advance width="715"/>
  <unicode hex="002F"/>
  <outline>
    <contour>
      <point x="27" y="-337" type="line"/>
      <point x="225" y="-337" type="line"/>
      <point x="656" y="1498" type="line"/>
      <point x="458" y="1498" type="line"/>
    </contour>
  </outline>
</glyph>
<glyph name="zero" format="2">
  <advance width="1112"/>
  <unicode hex="0030"/>
  <outline>
    <contour>
      <point x="555" y="-25" type="curve" smooth="yes"/>
      <point x="842" y="-25"/>
      <point x="1034" y="219"/>
      <point x="1034" y="675" type="curve" smooth="yes"/>
      <point x="1034" y="1131"/>
      <point x="842" y="1365"/>
      <point x="555" y="1365" type="curve" smooth="yes"/>
      <point x="268" y="1365"/>
      <point x="78" y="1131"/>
      <point x="78" y="675" type="curve" smooth="yes"/>
      <point x="78" y="219"/>
      <point x="268" y="-25"/>
    </contour>
    <contour>
      <point x="555" y="211" type="curve" smooth="yes"/>
      <point x="449" y="211"/>
      <point x="367" y="310"/>
      <point x="367" y="675" type="curve" smooth="yes"/>
      <point x="367" y="1042"/>
      <point x="449" y="1131"/>
      <point x="555" y="1131" type="curve" smooth="yes"/>
      <point x="662" y="1131"/>
      <point x="745" y="1042"/>
      <point x="745" y="675" type="curve" smooth="yes"/>
      <point x="745" y="310"/>
      <point x="662" y="211"/>
    </contour>
  </outline>
</glyph>
<glyph name="one" format="2">
  <advance width="1112"/>
  <unicode hex="0031"/>
  <outline>
    <contour>
      <point x="147" y="0" type="line"/>
      <point x="998" y="0" type="line"/>
      <point x="998" y="244" type="line"/>
      <point x="745" y="244" type="line"/>
      <point x="745" y="1340" type="line"/>
      <point x="521" y="1340" type="line"/>
      <point x="428" y="1283"/>
      <point x="333" y="1247"/>
      <point x="189" y="1220" type="curve"/>
      <point x="189" y="1030" type="line"/>
      <point x="441" y="1030" type="line"/>
      <point x="441" y="244" type="line"/>
      <point x="147" y="244" type="line"/>
    </contour>
  </outline>
</glyph>
<glyph name="three" format="2">
  <advance width="1112"/>
  <unicode hex="0033"/>
  <outline>
    <contour>
      <point x="512" y="-25" type="curve" smooth="yes"/>
      <point x="781" y="-25"/>
      <point x="1009" y="116"/>
      <point x="1009" y="365" type="curve" smooth="yes"/>
      <point x="1009" y="538"/>
      <point x="895" y="648"/>
      <point x="740" y="692" type="curve"/>
      <point x="740" y="700" type="line"/>
      <point x="884" y="762"/>
      <point x="964" y="861"/>
      <point x="964" y="998" type="curve" smooth="yes"/>
      <point x="964" y="1234"/>
      <point x="781" y="1365"/>
      <point x="504" y="1365" type="curve" smooth="yes"/>
      <point x="341" y="1365"/>
      <point x="206" y="1300"/>
      <point x="84" y="1194" type="curve"/>
      <point x="238" y="1009" type="line"/>
      <point x="322" y="1082"/>
      <point x="394" y="1127"/>
      <point x="491" y="1127" type="curve" smooth="yes"/>
      <point x="597" y="1127"/>
      <point x="660" y="1072"/>
      <point x="660" y="977" type="curve" smooth="yes"/>
      <point x="660" y="869"/>
      <point x="582" y="793"/>
      <point x="339" y="793" type="curve"/>
      <point x="339" y="578" type="line"/>
      <point x="633" y="578"/>
      <point x="702" y="504"/>
      <point x="702" y="384" type="curve" smooth="yes"/>
      <point x="702" y="278"/>
      <point x="614" y="219"/>
      <point x="483" y="219" type="curve" smooth="yes"/>
      <point x="369" y="219"/>
      <point x="268" y="278"/>
      <point x="187" y="356" type="curve"/>
      <point x="46" y="164" type="line"/>
      <point x="143" y="52"/>
      <point x="295" y="-25"/>
    </contour>
  </outline>
</glyph>
<glyph name="four" format="2">
  <advance width="1112"/>
  <unicode hex="0034"/>
  <outline>
    <contour>
      <point x="620" y="0" type="line"/>
      <point x="905" y="0" type="line"/>
      <point x="905" y="1340" type="line"/>
      <point x="534" y="1340" type="line"/>
      <point x="40" y="531" type="line"/>
      <point x="40" y="322" type="line"/>
      <point x="1061" y="322" type="line"/>
      <point x="1061" y="555" type="line"/>
      <point x="333" y="555" type="line"/>
      <point x="515" y="854" type="line"/>
      <point x="553" y="930"/>
      <point x="591" y="1004"/>
      <point x="624" y="1078" type="curve"/>
      <point x="633" y="1078" type="line"/>
      <point x="629" y="994"/>
      <point x="620" y="865"/>
      <point x="620" y="781" type="curve" smooth="yes"/>
    </contour>
  </outline>
</glyph>
<glyph name="eight" format="2">
  <advance width="1112"/>
  <unicode hex="0038"/>
  <outline>
    <contour>
      <point x="555" y="-25" type="curve" smooth="yes"/>
      <point x="838" y="-25"/>
      <point x="1025" y="135"/>
      <point x="1025" y="346" type="curve" smooth="yes"/>
      <point x="1025" y="523"/>
      <point x="922" y="624"/>
      <point x="795" y="696" type="curve"/>
      <point x="795" y="705" type="line"/>
      <point x="886" y="766"/>
      <point x="971" y="869"/>
      <point x="971" y="998" type="curve" smooth="yes"/>
      <point x="971" y="1220"/>
      <point x="808" y="1365"/>
      <point x="563" y="1365" type="curve" smooth="yes"/>
      <point x="316" y="1365"/>
      <point x="137" y="1224"/>
      <point x="137" y="996" type="curve" smooth="yes"/>
      <point x="137" y="857"/>
      <point x="213" y="757"/>
      <point x="318" y="681" type="curve"/>
      <point x="318" y="673" type="line"/>
      <point x="192" y="605"/>
      <point x="88" y="504"/>
      <point x="88" y="341" type="curve" smooth="yes"/>
      <point x="88" y="124"/>
      <point x="287" y="-25"/>
    </contour>
    <contour>
      <point x="637" y="778" type="curve"/>
      <point x="500" y="833"/>
      <point x="405" y="886"/>
      <point x="405" y="996" type="curve" smooth="yes"/>
      <point x="405" y="1101"/>
      <point x="472" y="1154"/>
      <point x="557" y="1154" type="curve" smooth="yes"/>
      <point x="662" y="1154"/>
      <point x="724" y="1082"/>
      <point x="724" y="977" type="curve" smooth="yes"/>
      <point x="724" y="907"/>
      <point x="692" y="842"/>
    </contour>
    <contour>
      <point x="561" y="185" type="curve" smooth="yes"/>
      <point x="445" y="185"/>
      <point x="350" y="257"/>
      <point x="350" y="375" type="curve" smooth="yes"/>
      <point x="350" y="462"/>
      <point x="396" y="538"/>
      <point x="458" y="593" type="curve"/>
      <point x="626" y="521"/>
      <point x="743" y="477"/>
      <point x="743" y="354" type="curve" smooth="yes"/>
      <point x="743" y="242"/>
      <point x="664" y="185"/>
    </contour>
  </outline>
</glyph>
<glyph name="nine" format="2">
  <advance width="1112"/>
  <unicode hex="0039"/>
  <outline>
    <contour>
      <point x="481" y="-25" type="curve" smooth="yes"/>
      <point x="762" y="-25"/>
      <point x="1021" y="198"/>
      <point x="1021" y="702" type="curve" smooth="yes"/>
      <point x="1021" y="1171"/>
      <point x="776" y="1365"/>
      <point x="517" y="1365" type="curve" smooth="yes"/>
      <point x="274" y="1365"/>
      <point x="71" y="1194"/>
      <point x="71" y="918" type="curve" smooth="yes"/>
      <point x="71" y="633"/>
      <point x="240" y="502"/>
      <point x="470" y="502" type="curve" smooth="yes"/>
      <point x="561" y="502"/>
      <point x="686" y="563"/>
      <point x="755" y="664" type="curve"/>
      <point x="740" y="865" type="line"/>
      <point x="679" y="757"/>
      <point x="599" y="717"/>
      <point x="529" y="717" type="curve" smooth="yes"/>
      <point x="426" y="717"/>
      <point x="350" y="774"/>
      <point x="350" y="918" type="curve" smooth="yes"/>
      <point x="350" y="1070"/>
      <point x="428" y="1137"/>
      <point x="521" y="1137" type="curve" smooth="yes"/>
      <point x="639" y="1137"/>
      <point x="743" y="1034"/>
      <point x="743" y="702" type="curve" smooth="yes"/>
      <point x="743" y="339"/>
      <point x="620" y="219"/>
      <point x="462" y="219" type="curve" smooth="yes"/>
      <point x="382" y="219"/>
      <point x="299" y="265"/>
      <point x="253" y="316" type="curve"/>
      <point x="92" y="135" type="line"/>
      <point x="175" y="48"/>
      <point x="303" y="-25"/>
    </contour>
  </outline>
</glyph>
<glyph name="at" format="2">
  <advance width="1899"/>
  <unicode hex="0040"/>
  <outline>
    <contour>
      <point x="901" y="-360" type="curve" smooth="yes"/>
      <point x="1051" y="-360"/>
      <point x="1186" y="-329"/>
      <point x="1315" y="-259" type="curve"/>
      <point x="1247" y="-94" type="line"/>
      <point x="1158" y="-141"/>
      <point x="1036" y="-175"/>
      <point x="926" y="-175" type="curve" smooth="yes"/>
      <point x="595" y="-175"/>
      <point x="308" y="25"/>
      <point x="308" y="441" type="curve" smooth="yes"/>
      <point x="308" y="916"/>
      <point x="664" y="1226"/>
      <point x="1028" y="1226" type="curve" smooth="yes"/>
      <point x="1439" y="1226"/>
      <point x="1604" y="956"/>
      <point x="1604" y="652" type="curve" smooth="yes"/>
      <point x="1604" y="420"/>
      <point x="1479" y="270"/>
      <point x="1351" y="270" type="curve" smooth="yes"/>
      <point x="1256" y="270"/>
      <point x="1224" y="329"/>
      <point x="1253" y="453" type="curve" smooth="yes"/>
      <point x="1348" y="918" type="line"/>
      <point x="1163" y="918" type="line"/>
      <point x="1131" y="829" type="line"/>
      <point x="1127" y="829" type="line"/>
      <point x="1091" y="903"/>
      <point x="1036" y="935"/>
      <point x="966" y="935" type="curve" smooth="yes"/>
      <point x="724" y="935"/>
      <point x="540" y="673"/>
      <point x="540" y="417" type="curve" smooth="yes"/>
      <point x="540" y="223"/>
      <point x="654" y="101"/>
      <point x="819" y="101" type="curve" smooth="yes"/>
      <point x="905" y="101"/>
      <point x="1013" y="158"/>
      <point x="1072" y="242" type="curve"/>
      <point x="1076" y="242" type="line"/>
      <point x="1099" y="139"/>
      <point x="1196" y="82"/>
      <point x="1319" y="82" type="curve" smooth="yes"/>
      <point x="1538" y="82"/>
      <point x="1796" y="274"/>
      <point x="1796" y="660" type="curve" smooth="yes"/>
      <point x="1796" y="1101"/>
      <point x="1507" y="1410"/>
      <point x="1051" y="1410" type="curve" smooth="yes"/>
      <point x="536" y="1410"/>
      <point x="103" y="1021"/>
      <point x="103" y="432" type="curve" smooth="yes"/>
      <point x="103" y="-103"/>
      <point x="479" y="-360"/>
    </contour>
    <contour>
      <point x="884" y="293" type="curve" smooth="yes"/>
      <point x="814" y="293"/>
      <point x="770" y="339"/>
      <point x="770" y="434" type="curve" smooth="yes"/>
      <point x="770" y="563"/>
      <point x="848" y="738"/>
      <point x="977" y="738" type="curve" smooth="yes"/>
      <point x="1019" y="738"/>
      <point x="1053" y="717"/>
      <point x="1076" y="677" type="curve"/>
      <point x="1025" y="390" type="line"/>
      <point x="971" y="318"/>
      <point x="928" y="293"/>
    </contour>
  </outline>
</glyph>
<glyph name="A" format="2">
  <advance width="1205"/>
  <unicode hex="0041"/>
  <anchor x="599" y="1422" name="aboveUC"/>
  <anchor x="599" y="-46" name="belowLC"/>
  <anchor x="1034" y="0" name="ogonekUC"/>
  <outline>
    <contour>
      <point x="1220" y="0" type="line"/>
      <point x="785" y="1376" type="line"/>
      <point x="420" y="1376" type="line"/>
      <point x="-12" y="0" type="line"/>
      <point x="299" y="0" type="line"/>
      <point x="386" y="331" type="line"/>
      <point x="810" y="331" type="line"/>
      <point x="897" y="0" type="line"/>
    </contour>
    <contour>
      <point x="483" y="700" type="line" smooth="yes"/>
      <point x="519" y="839"/>
      <point x="559" y="998"/>
      <point x="593" y="1144" type="curve"/>
      <point x="601" y="1144" type="line"/>
      <point x="638" y="1000"/>
      <point x="677" y="839"/>
      <point x="713" y="700" type="curve" smooth="yes"/>
      <point x="747" y="569" type="line"/>
      <point x="449" y="569" type="line"/>
    </contour>
  </outline>
</glyph>
<glyph name="C" format="2">
  <advance width="1226"/>
  <unicode hex="0043"/>
  <anchor x="721" y="1422" name="aboveUC"/>
  <anchor x="736" y="0" name="baseLC"/>
  <anchor x="736" y="-46" name="belowLC"/>
  <outline>
    <contour>
      <point x="736" y="-25" type="curve" smooth="yes"/>
      <point x="911" y="-25"/>
      <point x="1061" y="40"/>
      <point x="1180" y="177" type="curve"/>
      <point x="1019" y="358" type="line"/>
      <point x="949" y="282"/>
      <point x="861" y="238"/>
      <point x="747" y="238" type="curve" smooth="yes"/>
      <point x="544" y="238"/>
      <point x="411" y="405"/>
      <point x="411" y="690" type="curve" smooth="yes"/>
      <point x="411" y="968"/>
      <point x="561" y="1137"/>
      <point x="753" y="1137" type="curve" smooth="yes"/>
      <point x="852" y="1137"/>
      <point x="928" y="1101"/>
      <point x="996" y="1038" type="curve"/>
      <point x="1158" y="1224" type="line"/>
      <point x="1066" y="1321"/>
      <point x="922" y="1401"/>
      <point x="745" y="1401" type="curve" smooth="yes"/>
      <point x="398" y="1401"/>
      <point x="97" y="1135"/>
      <point x="97" y="679" type="curve" smooth="yes"/>
      <point x="97" y="217"/>
      <point x="388" y="-25"/>
    </contour>
  </outline>
</glyph>
<glyph name="D" format="2">
  <advance width="1338"/>
  <unicode hex="0044"/>
  <anchor x="671" y="1422" name="aboveUC"/>
  <anchor x="658" y="-46" name="belowLC"/>
  <outline>
    <contour>
      <point x="162" y="0" type="line"/>
      <point x="567" y="0" type="line" smooth="yes"/>
      <point x="971" y="0"/>
      <point x="1239" y="221"/>
      <point x="1239" y="694" type="curve" smooth="yes"/>
      <point x="1239" y="1165"/>
      <point x="971" y="1376"/>
      <point x="550" y="1376" type="curve" smooth="yes"/>
      <point x="162" y="1376" type="line"/>
    </contour>
    <contour>
      <point x="468" y="244" type="line"/>
      <point x="468" y="1131" type="line"/>
      <point x="531" y="1131" type="line" smooth="yes"/>
      <point x="768" y="1131"/>
      <point x="926" y="1023"/>
      <point x="926" y="694" type="curve" smooth="yes"/>
      <point x="926" y="363"/>
      <point x="768" y="244"/>
      <point x="531" y="244" type="curve" smooth="yes"/>
    </contour>
  </outline>
</glyph>
<glyph name="E" format="2">
  <advance width="1154"/>
  <unicode hex="0045"/>
  <anchor x="612" y="1422" name="aboveUC"/>
  <anchor x="633" y="-46" name="belowLC"/>
  <anchor x="857" y="0" name="ogonekUC"/>
  <outline>
    <contour>
      <point x="162" y="0" type="line"/>
      <point x="1044" y="0" type="line"/>
      <point x="1044" y="255" type="line"/>
      <point x="468" y="255" type="line"/>
      <point x="468" y="580" type="line"/>
      <point x="939" y="580" type="line"/>
      <point x="939" y="838" type="line"/>
      <point x="468" y="838" type="line"/>
      <point x="468" y="1120" type="line"/>
      <point x="1023" y="1120" type="line"/>
      <point x="1023" y="1376" type="line"/>
      <point x="162" y="1376" type="line"/>
    </contour>
  </outline>
</glyph>
<glyph name="H" format="2">
  <advance width="1420"/>
  <unicode hex="0048"/>
  <anchor x="707" y="1422" name="aboveUC"/>
  <anchor x="707" y="-46" name="belowLC"/>
  <outline>
    <contour>
      <point x="162" y="0" type="line"/>
      <point x="468" y="0" type="line"/>
      <point x="468" y="578" type="line"/>
      <point x="952" y="578" type="line"/>
      <point x="952" y="0" type="line"/>
      <point x="1256" y="0" type="line"/>
      <point x="1256" y="1376" type="line"/>
      <point x="952" y="1376" type="line"/>
      <point x="952" y="844" type="line"/>
      <point x="468" y="844" type="line"/>
      <point x="468" y="1376" type="line"/>
      <point x="162" y="1376" type="line"/>
    </contour>
  </outline>
</glyph>
<glyph name="I" format="2">
  <advance width="633"/>
  <unicode hex="0049"/>
  <anchor x="318" y="1422" name="aboveUC"/>
  <anchor x="318" y="-46" name="belowLC"/>
  <anchor x="316" y="0" name="ogonekUC"/>
  <outline>
    <contour>
      <point x="162" y="0" type="line"/>
      <point x="468" y="0" type="line"/>
      <point x="468" y="1376" type="line"/>
      <point x="162" y="1376" type="line"/>
    </contour>
  </outline>
</glyph>
<glyph name="J" format="2">
  <advance width="1070"/>
  <unicode hex="004A"/>
  <anchor x="751" y="1422" name="aboveUC"/>
  <anchor x="557" y="-46" name="belowLC"/>
  <outline>
    <contour>
      <point x="455" y="-25" type="curve" smooth="yes"/>
      <point x="772" y="-25"/>
      <point x="916" y="196"/>
      <point x="916" y="466" type="curve" smooth="yes"/>
      <point x="916" y="1376" type="line"/>
      <point x="610" y="1376" type="line"/>
      <point x="610" y="491" type="line" smooth="yes"/>
      <point x="610" y="299"/>
      <point x="548" y="238"/>
      <point x="426" y="238" type="curve" smooth="yes"/>
      <point x="348" y="238"/>
      <point x="276" y="280"/>
      <point x="236" y="358" type="curve"/>
      <point x="42" y="227" type="line"/>
      <point x="130" y="52"/>
      <point x="263" y="-25"/>
    </contour>
  </outline>
</glyph>
<glyph name="K" format="2">
  <advance width="1294"/>
  <unicode hex="004B"/>
  <anchor x="671" y="1422" name="aboveUC"/>
  <anchor x="700" y="-46" name="belowLC"/>
  <outline>
    <contour>
      <point x="162" y="0" type="line"/>
      <point x="468" y="0" type="line"/>
      <point x="468" y="371" type="line"/>
      <point x="633" y="586" type="line"/>
      <point x="971" y="0" type="line"/>
      <point x="1304" y="0" type="line"/>
      <point x="812" y="827" type="line"/>
      <point x="1228" y="1376" type="line"/>
      <point x="892" y="1376" type="line"/>
      <point x="477" y="808" type="line"/>
      <point x="468" y="808" type="line"/>
      <point x="468" y="1376" type="line"/>
      <point x="162" y="1376" type="line"/>
    </contour>
  </outline>
</glyph>
<glyph name="Q" format="2">
  <advance width="1441"/>
  <unicode hex="0051"/>
  <anchor x="721" y="1422" name="aboveUC"/>
  <outline>
    <contour>
      <point x="721" y="-25" type="curve" smooth="yes"/>
      <point x="1091" y="-25"/>
      <point x="1344" y="244"/>
      <point x="1344" y="694" type="curve" smooth="yes"/>
      <point x="1344" y="1142"/>
      <point x="1091" y="1401"/>
      <point x="721" y="1401" type="curve" smooth="yes"/>
      <point x="350" y="1401"/>
      <point x="97" y="1144"/>
      <point x="97" y="694" type="curve" smooth="yes"/>
      <point x="97" y="244"/>
      <point x="350" y="-25"/>
    </contour>
    <contour>
      <point x="721" y="223" type="curve" smooth="yes"/>
      <point x="531" y="223"/>
      <point x="411" y="398"/>
      <point x="411" y="694" type="curve" smooth="yes"/>
      <point x="411" y="973"/>
      <point x="531" y="1137"/>
      <point x="721" y="1137" type="curve" smooth="yes"/>
      <point x="911" y="1137"/>
      <point x="1032" y="973"/>
      <point x="1032" y="694" type="curve" smooth="yes"/>
      <point x="1032" y="398"/>
      <point x="911" y="223"/>
    </contour>
    <contour>
      <point x="1173" y="-382" type="curve" smooth="yes"/>
      <point x="1279" y="-382"/>
      <point x="1363" y="-363"/>
      <point x="1414" y="-335" type="curve"/>
      <point x="1361" y="-118" type="line"/>
      <point x="1319" y="-128"/>
      <point x="1268" y="-137"/>
      <point x="1207" y="-137" type="curve" smooth="yes"/>
      <point x="1076" y="-137"/>
      <point x="935" y="-88"/>
      <point x="882" y="40" type="curve"/>
      <point x="572" y="10" type="line"/>
      <point x="664" y="-215"/>
      <point x="871" y="-382"/>
    </contour>
  </outline>
</glyph>
<glyph name="R" format="2">
  <advance width="1289"/>
  <unicode hex="0052"/>
  <anchor x="652" y="1422" name="aboveUC"/>
  <anchor x="690" y="-46" name="belowLC"/>
  <outline>
    <contour>
      <point x="162" y="0" type="line"/>
      <point x="468" y="0" type="line"/>
      <point x="468" y="498" type="line"/>
      <point x="656" y="498" type="line" smooth="yes"/>
      <point x="947" y="498"/>
      <point x="1186" y="635"/>
      <point x="1186" y="949" type="curve" smooth="yes"/>
      <point x="1186" y="1275"/>
      <point x="947" y="1376"/>
      <point x="656" y="1376" type="curve" smooth="yes"/>
      <point x="162" y="1376" type="line"/>
    </contour>
    <contour>
      <point x="468" y="740" type="line"/>
      <point x="468" y="1133" type="line"/>
      <point x="631" y="1133" type="line" smooth="yes"/>
      <point x="797" y="1133"/>
      <point x="886" y="1087"/>
      <point x="886" y="949" type="curve" smooth="yes"/>
      <point x="886" y="812"/>
      <point x="797" y="740"/>
      <point x="631" y="740" type="curve" smooth="yes"/>
    </contour>
    <contour>
      <point x="909" y="0" type="line"/>
      <point x="1249" y="0" type="line"/>
      <point x="812" y="774" type="line"/>
      <point x="599" y="580" type="line"/>
    </contour>
  </outline>
</glyph>
<glyph name="T" format="2">
  <advance width="1171"/>
  <unicode hex="0054"/>
  <anchor x="582" y="1422" name="aboveUC"/>
  <anchor x="582" y="0" name="baseLC"/>
  <anchor x="582" y="-46" name="belowLC"/>
  <outline>
    <contour>
      <point x="432" y="0" type="line"/>
      <point x="738" y="0" type="line"/>
      <point x="738" y="1120" type="line"/>
      <point x="1118" y="1120" type="line"/>
      <point x="1118" y="1376" type="line"/>
      <point x="52" y="1376" type="line"/>
      <point x="52" y="1120" type="line"/>
      <point x="432" y="1120" type="line"/>
    </contour>
  </outline>
</glyph>
<glyph name="U" format="2">
  <advance width="1401"/>
  <unicode hex="0055"/>
  <anchor x="700" y="1422" name="aboveUC"/>
  <anchor x="700" y="-46" name="belowLC"/>
  <anchor x="1148" y="1397" name="hornLC"/>
  <anchor x="700" y="0" name="ogonekUC"/>
  <outline>
    <contour>
      <point x="702" y="-25" type="curve" smooth="yes"/>
      <point x="1055" y="-25"/>
      <point x="1245" y="173"/>
      <point x="1245" y="635" type="curve" smooth="yes"/>
      <point x="1245" y="1376" type="line"/>
      <point x="952" y="1376" type="line"/>
      <point x="952" y="603" type="line" smooth="yes"/>
      <point x="952" y="331"/>
      <point x="859" y="238"/>
      <point x="702" y="238" type="curve" smooth="yes"/>
      <point x="548" y="238"/>
      <point x="460" y="331"/>
      <point x="460" y="603" type="curve" smooth="yes"/>
      <point x="460" y="1376" type="line"/>
      <point x="156" y="1376" type="line"/>
      <point x="156" y="635" type="line" smooth="yes"/>
      <point x="156" y="173"/>
      <point x="350" y="-25"/>
    </contour>
  </outline>
</glyph>
<glyph name="V" format="2">
  <advance width="1169"/>
  <unicode hex="0056"/>
  <anchor x="584" y="1422" name="aboveUC"/>
  <anchor x="580" y="-46" name="belowLC"/>
  <outline>
    <contour>
      <point x="394" y="0" type="line"/>
      <point x="759" y="0" type="line"/>
      <point x="1184" y="1376" type="line"/>
      <point x="871" y="1376" type="line"/>
      <point x="698" y="730" type="line" smooth="yes"/>
      <point x="658" y="578"/>
      <point x="631" y="441"/>
      <point x="588" y="289" type="curve"/>
      <point x="580" y="289" type="line"/>
      <point x="538" y="441"/>
      <point x="506" y="578"/>
      <point x="468" y="730" type="curve" smooth="yes"/>
      <point x="308" y="1376" type="line"/>
      <point x="-14" y="1376" type="line"/>
    </contour>
  </outline>
</glyph>
<glyph name="X" format="2">
  <advance width="1192"/>
  <unicode hex="0058"/>
  <anchor x="597" y="1422" name="aboveUC"/>
  <anchor x="576" y="-46" name="belowLC"/>
  <outline>
    <contour>
      <point x="25" y="0" type="line"/>
      <point x="350" y="0" type="line"/>
      <point x="481" y="284" type="line" smooth="yes"/>
      <point x="512" y="354"/>
      <point x="544" y="426"/>
      <point x="576" y="510" type="curve"/>
      <point x="584" y="510" type="line"/>
      <point x="622" y="426"/>
      <point x="654" y="354"/>
      <point x="690" y="284" type="curve" smooth="yes"/>
      <point x="827" y="0" type="line"/>
      <point x="1167" y="0" type="line"/>
      <point x="787" y="694" type="line"/>
      <point x="1146" y="1376" type="line"/>
      <point x="819" y="1376" type="line"/>
      <point x="707" y="1112" type="line" smooth="yes"/>
      <point x="679" y="1049"/>
      <point x="650" y="977"/>
      <point x="618" y="892" type="curve"/>
      <point x="610" y="892" type="line"/>
      <point x="569" y="977"/>
      <point x="540" y="1049"/>
      <point x="508" y="1112" type="curve" smooth="yes"/>
      <point x="386" y="1376" type="line"/>
      <point x="46" y="1376" type="line"/>
      <point x="405" y="709" type="line"/>
    </contour>
  </outline>
</glyph>
<glyph name="Y" format="2">
  <advance width="1104"/>
  <unicode hex="0059"/>
  <anchor x="550" y="1422" name="aboveUC"/>
  <anchor x="555" y="-46" name="belowLC"/>
  <outline>
    <contour>
      <point x="398" y="0" type="line"/>
      <point x="705" y="0" type="line"/>
      <point x="705" y="491" type="line"/>
      <point x="1118" y="1376" type="line"/>
      <point x="800" y="1376" type="line"/>
      <point x="675" y="1057" type="line"/>
      <point x="637" y="954"/>
      <point x="597" y="859"/>
      <point x="557" y="751" type="curve"/>
      <point x="548" y="751" type="line"/>
      <point x="508" y="859"/>
      <point x="472" y="954"/>
      <point x="436" y="1057" type="curve"/>
      <point x="310" y="1376" type="line"/>
      <point x="-14" y="1376" type="line"/>
      <point x="398" y="491" type="line"/>
    </contour>
  </outline>
</glyph>
<glyph name="bracketleft" format="2">
  <advance width="721"/>
  <unicode hex="005B"/>
  <outline>
    <contour>
      <point x="183" y="-320" type="line"/>
      <point x="626" y="-320" type="line"/>
      <point x="626" y="-158" type="line"/>
      <point x="411" y="-158" type="line"/>
      <point x="411" y="1332" type="line"/>
      <point x="626" y="1332" type="line"/>
      <point x="626" y="1494" type="line"/>
      <point x="183" y="1494" type="line"/>
    </contour>
  </outline>
</glyph>
<glyph name="asciicircum" format="2">
  <advance width="1112"/>
  <unicode hex="005E"/>
  <outline>
    <contour>
      <point x="105" y="578" type="line"/>
      <point x="356" y="578" type="line"/>
      <point x="455" y="854" type="line"/>
      <point x="550" y="1139" type="line"/>
      <point x="559" y="1139" type="line"/>
      <point x="656" y="854" type="line"/>
      <point x="755" y="578" type="line"/>
      <point x="1004" y="578" type="line"/>
      <point x="679" y="1414" type="line"/>
      <point x="432" y="1414" type="line"/>
    </contour>
  </outline>
</glyph>
<glyph name="c" format="2">
  <advance width="985"/>
  <unicode hex="0063"/>
  <anchor x="586" y="1093" name="aboveLC"/>
  <anchor x="553" y="0" name="baseLC"/>
  <anchor x="553" y="-46" name="belowLC"/>
  <outline>
    <contour>
      <point x="593" y="-25" type="curve" smooth="yes"/>
      <point x="707" y="-25"/>
      <point x="835" y="8"/>
      <point x="937" y="99" type="curve"/>
      <point x="819" y="291" type="line"/>
      <point x="764" y="246"/>
      <point x="700" y="219"/>
      <point x="626" y="219" type="curve" smooth="yes"/>
      <point x="489" y="219"/>
      <point x="388" y="339"/>
      <point x="388" y="523" type="curve" smooth="yes"/>
      <point x="388" y="707"/>
      <point x="485" y="825"/>
      <point x="637" y="825" type="curve" smooth="yes"/>
      <point x="688" y="825"/>
      <point x="732" y="810"/>
      <point x="783" y="770" type="curve"/>
      <point x="926" y="958" type="line"/>
      <point x="848" y="1025"/>
      <point x="749" y="1072"/>
      <point x="620" y="1072" type="curve" smooth="yes"/>
      <point x="331" y="1072"/>
      <point x="75" y="869"/>
      <point x="75" y="523" type="curve" smooth="yes"/>
      <point x="75" y="175"/>
      <point x="301" y="-25"/>
    </contour>
  </outline>
</glyph>
<glyph name="d" format="2">
  <advance width="1207"/>
  <unicode hex="0064"/>
  <anchor x="582" y="1524" name="aboveUC"/>
  <anchor x="603" y="-46" name="belowLC"/>
  <outline>
    <contour>
      <point x="510" y="-25" type="curve" smooth="yes"/>
      <point x="614" y="-25"/>
      <point x="717" y="29"/>
      <point x="791" y="105" type="curve"/>
      <point x="800" y="105" type="line"/>
      <point x="821" y="0" type="line"/>
      <point x="1070" y="0" type="line"/>
      <point x="1070" y="1479" type="line"/>
      <point x="766" y="1479" type="line"/>
      <point x="766" y="1120" type="line"/>
      <point x="776" y="962" type="line"/>
      <point x="705" y="1028"/>
      <point x="633" y="1072"/>
      <point x="517" y="1072" type="curve" smooth="yes"/>
      <point x="297" y="1072"/>
      <point x="84" y="865"/>
      <point x="84" y="523" type="curve" smooth="yes"/>
      <point x="84" y="181"/>
      <point x="251" y="-25"/>
    </contour>
    <contour>
      <point x="591" y="223" type="curve" smooth="yes"/>
      <point x="468" y="223"/>
      <point x="394" y="318"/>
      <point x="394" y="525" type="curve" smooth="yes"/>
      <point x="394" y="726"/>
      <point x="485" y="823"/>
      <point x="588" y="823" type="curve" smooth="yes"/>
      <point x="645" y="823"/>
      <point x="709" y="804"/>
      <point x="766" y="753" type="curve"/>
      <point x="766" y="318" type="line"/>
      <point x="711" y="249"/>
      <point x="658" y="223"/>
    </contour>
  </outline>
</glyph>
<glyph name="f" format="2">
  <advance width="715"/>
  <unicode hex="0066"/>
  <anchor x="506" y="1524" name="aboveUC"/>
  <anchor x="344" y="-46" name="belowLC"/>
  <outline>
    <contour>
      <point x="189" y="0" type="line"/>
      <point x="496" y="0" type="line"/>
      <point x="496" y="1114" type="line" smooth="yes"/>
      <point x="496" y="1222"/>
      <point x="538" y="1266"/>
      <point x="616" y="1266" type="curve" smooth="yes"/>
      <point x="650" y="1266"/>
      <point x="686" y="1260"/>
      <point x="721" y="1251" type="curve"/>
      <point x="778" y="1467" type="line"/>
      <point x="734" y="1486"/>
      <point x="658" y="1505"/>
      <point x="572" y="1505" type="curve" smooth="yes"/>
      <point x="293" y="1505"/>
      <point x="189" y="1325"/>
      <point x="189" y="1106" type="curve" smooth="yes"/>
    </contour>
    <contour>
      <point x="50" y="806" type="line"/>
      <point x="683" y="806" type="line"/>
      <point x="683" y="1047" type="line"/>
      <point x="206" y="1047" type="line"/>
      <point x="50" y="1034" type="line"/>
    </contour>
  </outline>
</glyph>
<glyph name="g" format="2">
  <advance width="1125"/>
  <unicode hex="0067"/>
  <anchor x="572" y="1093" name="aboveLC"/>
  <anchor x="527" y="-430" name="belowLC"/>
  <outline>
    <contour>
      <point x="510" y="-445" type="curve" smooth="yes"/>
      <point x="867" y="-445"/>
      <point x="1093" y="-287"/>
      <point x="1093" y="-71" type="curve" smooth="yes"/>
      <point x="1093" y="116"/>
      <point x="952" y="194"/>
      <point x="696" y="194" type="curve" smooth="yes"/>
      <point x="525" y="194" type="line" smooth="yes"/>
      <point x="409" y="194"/>
      <point x="367" y="219"/>
      <point x="367" y="272" type="curve" smooth="yes"/>
      <point x="367" y="310"/>
      <point x="377" y="329"/>
      <point x="405" y="352" type="curve"/>
      <point x="451" y="337"/>
      <point x="496" y="331"/>
      <point x="534" y="331" type="curve" smooth="yes"/>
      <point x="762" y="331"/>
      <point x="943" y="443"/>
      <point x="943" y="683" type="curve" smooth="yes"/>
      <point x="943" y="738"/>
      <point x="926" y="791"/>
      <point x="907" y="825" type="curve"/>
      <point x="1076" y="825" type="line"/>
      <point x="1076" y="1047" type="line"/>
      <point x="694" y="1047" type="line"/>
      <point x="648" y="1061"/>
      <point x="591" y="1072"/>
      <point x="534" y="1072" type="curve" smooth="yes"/>
      <point x="308" y="1072"/>
      <point x="103" y="943"/>
      <point x="103" y="692" type="curve" smooth="yes"/>
      <point x="103" y="569"/>
      <point x="168" y="472"/>
      <point x="242" y="422" type="curve"/>
      <point x="242" y="413" type="line"/>
      <point x="177" y="367"/>
      <point x="126" y="293"/>
      <point x="126" y="217" type="curve" smooth="yes"/>
      <point x="126" y="130"/>
      <point x="166" y="75"/>
      <point x="221" y="40" type="curve"/>
      <point x="221" y="31" type="line"/>
      <point x="124" y="-23"/>
      <point x="73" y="-92"/>
      <point x="73" y="-181" type="curve" smooth="yes"/>
      <point x="73" y="-367"/>
      <point x="265" y="-445"/>
    </contour>
    <contour>
      <point x="534" y="515" type="curve" smooth="yes"/>
      <point x="449" y="515"/>
      <point x="388" y="576"/>
      <point x="388" y="692" type="curve" smooth="yes"/>
      <point x="388" y="806"/>
      <point x="449" y="867"/>
      <point x="534" y="867" type="curve" smooth="yes"/>
      <point x="618" y="867"/>
      <point x="679" y="806"/>
      <point x="679" y="692" type="curve" smooth="yes"/>
      <point x="679" y="576"/>
      <point x="616" y="515"/>
    </contour>
    <contour>
      <point x="559" y="-255" type="curve" smooth="yes"/>
      <point x="415" y="-255"/>
      <point x="325" y="-213"/>
      <point x="325" y="-132" type="curve" smooth="yes"/>
      <point x="325" y="-92"/>
      <point x="341" y="-59"/>
      <point x="382" y="-27" type="curve"/>
      <point x="417" y="-35"/>
      <point x="458" y="-40"/>
      <point x="529" y="-40" type="curve" smooth="yes"/>
      <point x="641" y="-40" type="line" smooth="yes"/>
      <point x="745" y="-40"/>
      <point x="802" y="-54"/>
      <point x="802" y="-122" type="curve" smooth="yes"/>
      <point x="802" y="-196"/>
      <point x="700" y="-255"/>
    </contour>
  </outline>
</glyph>
<glyph name="k" format="2">
  <advance width="1150"/>
  <unicode hex="006B"/>
  <anchor x="654" y="1524" name="aboveUC"/>
  <anchor x="616" y="-46" name="belowLC"/>
  <outline>
    <contour>
      <point x="137" y="0" type="line"/>
      <point x="439" y="0" type="line"/>
      <point x="439" y="261" type="line"/>
      <point x="572" y="411" type="line"/>
      <point x="808" y="0" type="line"/>
      <point x="1139" y="0" type="line"/>
      <point x="747" y="612" type="line"/>
      <point x="1110" y="1047" type="line"/>
      <point x="776" y="1047" type="line"/>
      <point x="447" y="629" type="line"/>
      <point x="439" y="629" type="line"/>
      <point x="439" y="1479" type="line"/>
      <point x="137" y="1479" type="line"/>
    </contour>
  </outline>
</glyph>
<glyph name="m" format="2">
  <advance width="1807"/>
  <unicode hex="006D"/>
  <anchor x="933" y="1093" name="aboveLC"/>
  <anchor x="916" y="-46" name="belowLC"/>
  <outline>
    <contour>
      <point x="137" y="0" type="line"/>
      <point x="443" y="0" type="line"/>
      <point x="443" y="707" type="line"/>
      <point x="508" y="778"/>
      <point x="572" y="812"/>
      <point x="624" y="812" type="curve" smooth="yes"/>
      <point x="713" y="812"/>
      <point x="755" y="764"/>
      <point x="755" y="612" type="curve" smooth="yes"/>
      <point x="755" y="0" type="line"/>
      <point x="1059" y="0" type="line"/>
      <point x="1059" y="707" type="line"/>
      <point x="1127" y="778"/>
      <point x="1188" y="812"/>
      <point x="1241" y="812" type="curve" smooth="yes"/>
      <point x="1332" y="812"/>
      <point x="1374" y="764"/>
      <point x="1374" y="612" type="curve" smooth="yes"/>
      <point x="1374" y="0" type="line"/>
      <point x="1678" y="0" type="line"/>
      <point x="1678" y="650" type="line" smooth="yes"/>
      <point x="1678" y="911"/>
      <point x="1576" y="1072"/>
      <point x="1351" y="1072" type="curve" smooth="yes"/>
      <point x="1213" y="1072"/>
      <point x="1114" y="992"/>
      <point x="1021" y="895" type="curve"/>
      <point x="971" y="1006"/>
      <point x="880" y="1072"/>
      <point x="734" y="1072" type="curve" smooth="yes"/>
      <point x="597" y="1072"/>
      <point x="502" y="998"/>
      <point x="415" y="911" type="curve"/>
      <point x="409" y="911" type="line"/>
      <point x="386" y="1047" type="line"/>
      <point x="137" y="1047" type="line"/>
    </contour>
  </outline>
</glyph>
<glyph name="n" format="2">
  <advance width="1205"/>
  <unicode hex="006E"/>
  <anchor x="658" y="1093" name="aboveLC"/>
  <anchor x="603" y="-46" name="belowLC"/>
  <outline>
    <contour>
      <point x="137" y="0" type="line"/>
      <point x="443" y="0" type="line"/>
      <point x="443" y="707" type="line"/>
      <point x="512" y="774"/>
      <point x="561" y="812"/>
      <point x="639" y="812" type="curve" smooth="yes"/>
      <point x="732" y="812"/>
      <point x="772" y="764"/>
      <point x="772" y="612" type="curve" smooth="yes"/>
      <point x="772" y="0" type="line"/>
      <point x="1076" y="0" type="line"/>
      <point x="1076" y="650" type="line" smooth="yes"/>
      <point x="1076" y="911"/>
      <point x="979" y="1072"/>
      <point x="753" y="1072" type="curve" smooth="yes"/>
      <point x="610" y="1072"/>
      <point x="504" y="998"/>
      <point x="415" y="914" type="curve"/>
      <point x="409" y="914" type="line"/>
      <point x="386" y="1047" type="line"/>
      <point x="137" y="1047" type="line"/>
    </contour>
  </outline>
</glyph>
<glyph name="o" format="2">
  <advance width="1171"/>
  <unicode hex="006F"/>
  <anchor x="584" y="1093" name="aboveLC"/>
  <anchor x="584" y="-46" name="belowLC"/>
  <anchor x="783" y="1047" name="hornLC"/>
  <anchor x="584" y="0" name="ogonekLC"/>
  <outline>
    <contour>
      <point x="584" y="-25" type="curve" smooth="yes"/>
      <point x="850" y="-25"/>
      <point x="1093" y="175"/>
      <point x="1093" y="523" type="curve" smooth="yes"/>
      <point x="1093" y="869"/>
      <point x="850" y="1072"/>
      <point x="584" y="1072" type="curve" smooth="yes"/>
      <point x="320" y="1072"/>
      <point x="75" y="869"/>
      <point x="75" y="523" type="curve" smooth="yes"/>
      <point x="75" y="175"/>
      <point x="320" y="-25"/>
    </contour>
    <contour>
      <point x="584" y="219" type="curve" smooth="yes"/>
      <point x="453" y="219"/>
      <point x="388" y="339"/>
      <point x="388" y="523" type="curve" smooth="yes"/>
      <point x="388" y="707"/>
      <point x="453" y="825"/>
      <point x="584" y="825" type="curve" smooth="yes"/>
      <point x="715" y="825"/>
      <point x="781" y="707"/>
      <point x="781" y="523" type="curve" smooth="yes"/>
      <point x="781" y="339"/>
      <point x="715" y="219"/>
    </contour>
  </outline>
</glyph>
<glyph name="p" format="2">
  <advance width="1207"/>
  <unicode hex="0070"/>
  <anchor x="658" y="1093" name="aboveLC"/>
  <anchor x="287" y="-392" name="belowLC"/>
  <outline>
    <contour>
      <point x="137" y="-390" type="line"/>
      <point x="443" y="-390" type="line"/>
      <point x="443" y="-82" type="line"/>
      <point x="432" y="84" type="line"/>
      <point x="508" y="14"/>
      <point x="593" y="-25"/>
      <point x="683" y="-25" type="curve" smooth="yes"/>
      <point x="909" y="-25"/>
      <point x="1125" y="181"/>
      <point x="1125" y="540" type="curve" smooth="yes"/>
      <point x="1125" y="861"/>
      <point x="968" y="1072"/>
      <point x="715" y="1072" type="curve" smooth="yes"/>
      <point x="605" y="1072"/>
      <point x="498" y="1015"/>
      <point x="415" y="943" type="curve"/>
      <point x="409" y="943" type="line"/>
      <point x="386" y="1047" type="line"/>
      <point x="137" y="1047" type="line"/>
    </contour>
    <contour>
      <point x="612" y="223" type="curve" smooth="yes"/>
      <point x="559" y="223"/>
      <point x="500" y="240"/>
      <point x="443" y="291" type="curve"/>
      <point x="443" y="726" type="line"/>
      <point x="504" y="793"/>
      <point x="561" y="823"/>
      <point x="626" y="823" type="curve" smooth="yes"/>
      <point x="753" y="823"/>
      <point x="812" y="726"/>
      <point x="812" y="536" type="curve" smooth="yes"/>
      <point x="812" y="318"/>
      <point x="724" y="223"/>
    </contour>
  </outline>
</glyph>
<glyph name="r" format="2">
  <advance width="835"/>
  <unicode hex="0072"/>
  <anchor x="523" y="1093" name="aboveLC"/>
  <anchor x="282" y="-46" name="belowLC"/>
  <outline>
    <contour>
      <point x="137" y="0" type="line"/>
      <point x="443" y="0" type="line"/>
      <point x="443" y="610" type="line"/>
      <point x="498" y="753"/>
      <point x="595" y="804"/>
      <point x="673" y="804" type="curve" smooth="yes"/>
      <point x="719" y="804"/>
      <point x="743" y="800"/>
      <point x="778" y="791" type="curve"/>
      <point x="838" y="1051" type="line"/>
      <point x="806" y="1063"/>
      <point x="772" y="1072"/>
      <point x="713" y="1072" type="curve" smooth="yes"/>
      <point x="605" y="1072"/>
      <point x="491" y="1002"/>
      <point x="415" y="863" type="curve"/>
      <point x="409" y="863" type="line"/>
      <point x="386" y="1047" type="line"/>
      <point x="137" y="1047" type="line"/>
    </contour>
  </outline>
</glyph>
<glyph name="s" format="2">
  <advance width="933"/>
  <unicode hex="0073"/>
  <anchor x="489" y="1093" name="aboveLC"/>
  <anchor x="460" y="0" name="baseLC"/>
  <anchor x="460" y="-46" name="belowLC"/>
  <outline>
    <contour>
      <point x="445" y="-25" type="curve" smooth="yes"/>
      <point x="724" y="-25"/>
      <point x="873" y="122"/>
      <point x="873" y="310" type="curve" smooth="yes"/>
      <point x="873" y="485"/>
      <point x="743" y="576"/>
      <point x="582" y="629" type="curve" smooth="yes"/>
      <point x="451" y="673"/>
      <point x="388" y="698"/>
      <point x="388" y="759" type="curve" smooth="yes"/>
      <point x="388" y="810"/>
      <point x="426" y="846"/>
      <point x="510" y="846" type="curve" smooth="yes"/>
      <point x="584" y="846"/>
      <point x="662" y="823"/>
      <point x="738" y="768" type="curve"/>
      <point x="867" y="939" type="line"/>
      <point x="778" y="1015"/>
      <point x="652" y="1072"/>
      <point x="500" y="1072" type="curve" smooth="yes"/>
      <point x="259" y="1072"/>
      <point x="103" y="939"/>
      <point x="103" y="745" type="curve" smooth="yes"/>
      <point x="103" y="582"/>
      <point x="234" y="489"/>
      <point x="382" y="434" type="curve" smooth="yes"/>
      <point x="496" y="392"/>
      <point x="588" y="363"/>
      <point x="588" y="293" type="curve" smooth="yes"/>
      <point x="588" y="236"/>
      <point x="546" y="200"/>
      <point x="453" y="200" type="curve" smooth="yes"/>
      <point x="365" y="200"/>
      <point x="268" y="227"/>
      <point x="175" y="301" type="curve"/>
      <point x="44" y="130" type="line"/>
      <point x="149" y="29"/>
      <point x="306" y="-25"/>
    </contour>
  </outline>
</glyph>
<glyph name="t" format="2">
  <advance width="804"/>
  <unicode hex="0074"/>
  <anchor x="358" y="1386" name="aboveLC"/>
  <anchor x="489" y="0" name="baseLC"/>
  <anchor x="489" y="-46" name="belowLC"/>
  <outline>
    <contour>
      <point x="538" y="-25" type="curve" smooth="yes"/>
      <point x="635" y="-25"/>
      <point x="715" y="-4"/>
      <point x="770" y="16" type="curve"/>
      <point x="719" y="230" type="line"/>
      <point x="690" y="219"/>
      <point x="654" y="213"/>
      <point x="620" y="213" type="curve" smooth="yes"/>
      <point x="538" y="213"/>
      <point x="483" y="261"/>
      <point x="483" y="382" type="curve" smooth="yes"/>
      <point x="483" y="806" type="line"/>
      <point x="736" y="806" type="line"/>
      <point x="736" y="1047" type="line"/>
      <point x="483" y="1047" type="line"/>
      <point x="483" y="1367" type="line"/>
      <point x="232" y="1367" type="line"/>
      <point x="196" y="1047" type="line"/>
      <point x="35" y="1034" type="line"/>
      <point x="35" y="806" type="line"/>
      <point x="179" y="806" type="line"/>
      <point x="179" y="377" type="line" smooth="yes"/>
      <point x="179" y="137"/>
      <point x="280" y="-25"/>
    </contour>
  </outline>
</glyph>
<glyph name="v" format="2">
  <advance width="1097"/>
  <unicode hex="0076"/>
  <anchor x="553" y="1093" name="aboveLC"/>
  <anchor x="553" y="-46" name="belowLC"/>
  <outline>
    <contour>
      <point x="379" y="0" type="line"/>
      <point x="730" y="0" type="line"/>
      <point x="1072" y="1047" type="line"/>
      <point x="781" y="1047" type="line"/>
      <point x="641" y="548" type="line" smooth="yes"/>
      <point x="614" y="443"/>
      <point x="586" y="335"/>
      <point x="559" y="227" type="curve"/>
      <point x="550" y="227" type="line"/>
      <point x="525" y="335"/>
      <point x="496" y="443"/>
      <point x="470" y="548" type="curve" smooth="yes"/>
      <point x="331" y="1047" type="line"/>
      <point x="25" y="1047" type="line"/>
    </contour>
  </outline>
</glyph>
<glyph name="y" format="2">
  <advance width="1095"/>
  <unicode hex="0079"/>
  <anchor x="561" y="1093" name="aboveLC"/>
  <anchor x="477" y="-403" name="belowLC"/>
  <outline>
    <contour>
      <point x="251" y="-411" type="curve" smooth="yes"/>
      <point x="496" y="-411"/>
      <point x="607" y="-274"/>
      <point x="705" y="-14" type="curve"/>
      <point x="1070" y="1047" type="line"/>
      <point x="778" y="1047" type="line"/>
      <point x="648" y="591" type="line" smooth="yes"/>
      <point x="622" y="491"/>
      <point x="599" y="392"/>
      <point x="576" y="293" type="curve"/>
      <point x="567" y="293" type="line"/>
      <point x="538" y="396"/>
      <point x="512" y="496"/>
      <point x="483" y="591" type="curve" smooth="yes"/>
      <point x="331" y="1047" type="line"/>
      <point x="25" y="1047" type="line"/>
      <point x="430" y="25" type="line"/>
      <point x="413" y="-29" type="line" smooth="yes"/>
      <point x="386" y="-113"/>
      <point x="331" y="-170"/>
      <point x="227" y="-170" type="curve" smooth="yes"/>
      <point x="206" y="-170"/>
      <point x="189" y="-168"/>
      <point x="158" y="-160" type="curve"/>
      <point x="103" y="-386" type="line"/>
      <point x="145" y="-403"/>
      <point x="187" y="-411"/>
    </contour>
  </outline>
</glyph>
<glyph name="braceleft" format="2">
  <advance width="721"/>
  <unicode hex="007B"/>
  <outline>
    <contour>
      <point x="496" y="-320" type="curve" smooth="yes"/>
      <point x="626" y="-320" type="line"/>
      <point x="626" y="-158" type="line"/>
      <point x="586" y="-158" type="line" smooth="yes"/>
      <point x="498" y="-158"/>
      <point x="472" y="-126"/>
      <point x="472" y="-8" type="curve" smooth="yes"/>
      <point x="472" y="105"/>
      <point x="481" y="206"/>
      <point x="481" y="337" type="curve" smooth="yes"/>
      <point x="481" y="493"/>
      <point x="430" y="557"/>
      <point x="325" y="582" type="curve"/>
      <point x="325" y="591" type="line"/>
      <point x="430" y="616"/>
      <point x="481" y="677"/>
      <point x="481" y="835" type="curve" smooth="yes"/>
      <point x="481" y="966"/>
      <point x="472" y="1068"/>
      <point x="472" y="1182" type="curve" smooth="yes"/>
      <point x="472" y="1300"/>
      <point x="498" y="1332"/>
      <point x="586" y="1332" type="curve" smooth="yes"/>
      <point x="626" y="1332" type="line"/>
      <point x="626" y="1494" type="line"/>
      <point x="496" y="1494" type="line" smooth="yes"/>
      <point x="310" y="1494"/>
      <point x="227" y="1422"/>
      <point x="227" y="1194" type="curve" smooth="yes"/>
      <point x="227" y="1044"/>
      <point x="246" y="966"/>
      <point x="246" y="831" type="curve" smooth="yes"/>
      <point x="246" y="757"/>
      <point x="202" y="679"/>
      <point x="65" y="677" type="curve"/>
      <point x="65" y="496" type="line"/>
      <point x="202" y="493"/>
      <point x="246" y="415"/>
      <point x="246" y="339" type="curve" smooth="yes"/>
      <point x="246" y="206"/>
      <point x="227" y="128"/>
      <point x="227" y="-21" type="curve" smooth="yes"/>
      <point x="227" y="-249"/>
      <point x="310" y="-320"/>
    </contour>
  </outline>
</glyph>
<glyph name="bar" format="2">
  <advance width="563"/>
  <unicode hex="007C"/>
  <outline>
    <contour>
      <point x="181" y="-527" type="line"/>
      <point x="379" y="-527" type="line"/>
      <point x="379" y="1583" type="line"/>
      <point x="181" y="1583" type="line"/>
    </contour>
  </outline>
</glyph>
<glyph name="braceright" format="2">
  <advance width="721"/>
  <unicode hex="007D"/>
  <outline>
    <contour>
      <point x="94" y="-320" type="line"/>
      <point x="225" y="-320" type="line" smooth="yes"/>
      <point x="413" y="-320"/>
      <point x="496" y="-249"/>
      <point x="496" y="-21" type="curve" smooth="yes"/>
      <point x="496" y="128"/>
      <point x="474" y="206"/>
      <point x="474" y="339" type="curve" smooth="yes"/>
      <point x="474" y="415"/>
      <point x="519" y="493"/>
      <point x="656" y="496" type="curve"/>
      <point x="656" y="677" type="line"/>
      <point x="519" y="679"/>
      <point x="474" y="757"/>
      <point x="474" y="831" type="curve" smooth="yes"/>
      <point x="474" y="966"/>
      <point x="496" y="1044"/>
      <point x="496" y="1194" type="curve" smooth="yes"/>
      <point x="496" y="1422"/>
      <point x="413" y="1494"/>
      <point x="225" y="1494" type="curve" smooth="yes"/>
      <point x="94" y="1494" type="line"/>
      <point x="94" y="1332" type="line"/>
      <point x="135" y="1332" type="line" smooth="yes"/>
      <point x="225" y="1332"/>
      <point x="251" y="1300"/>
      <point x="251" y="1182" type="curve" smooth="yes"/>
      <point x="251" y="1068"/>
      <point x="240" y="966"/>
      <point x="240" y="835" type="curve" smooth="yes"/>
      <point x="240" y="677"/>
      <point x="291" y="616"/>
      <point x="396" y="591" type="curve"/>
      <point x="396" y="582" type="line"/>
      <point x="291" y="557"/>
      <point x="240" y="493"/>
      <point x="240" y="337" type="curve" smooth="yes"/>
      <point x="240" y="206"/>
      <point x="251" y="105"/>
      <point x="251" y="-8" type="curve" smooth="yes"/>
      <point x="251" y="-126"/>
      <point x="225" y="-158"/>
      <point x="135" y="-158" type="curve" smooth="yes"/>
      <point x="94" y="-158" type="line"/>
    </contour>
  </outline>
</glyph>
<glyph name="asciitilde" format="2">
  <advance width="1112"/>
  <unicode hex="007E"/>
  <outline>
    <contour>
      <point x="736" y="508" type="curve" smooth="yes"/>
      <point x="840" y="508"/>
      <point x="947" y="567"/>
      <point x="1051" y="724" type="curve"/>
      <point x="890" y="846" type="line"/>
      <point x="848" y="768"/>
      <point x="797" y="724"/>
      <point x="740" y="724" type="curve" smooth="yes"/>
      <point x="624" y="724"/>
      <point x="550" y="884"/>
      <point x="375" y="884" type="curve" smooth="yes"/>
      <point x="272" y="884"/>
      <point x="164" y="825"/>
      <point x="61" y="667" type="curve"/>
      <point x="219" y="546" type="line"/>
      <point x="263" y="624"/>
      <point x="314" y="669"/>
      <point x="371" y="669" type="curve" smooth="yes"/>
      <point x="487" y="669"/>
      <point x="561" y="508"/>
    </contour>
  </outline>
</glyph>
<glyph name="currency" format="2">
  <advance width="1112"/>
  <unicode hex="00A4"/>
  <outline>
    <contour>
      <point x="194" y="177" type="line"/>
      <point x="341" y="327" type="line"/>
      <point x="407" y="291"/>
      <point x="481" y="274"/>
      <point x="555" y="274" type="curve" smooth="yes"/>
      <point x="629" y="274"/>
      <point x="702" y="291"/>
      <point x="768" y="327" type="curve"/>
      <point x="916" y="177" type="line"/>
      <point x="1070" y="331" type="line"/>
      <point x="939" y="460" type="line"/>
      <point x="983" y="525"/>
      <point x="1013" y="603"/>
      <point x="1013" y="696" type="curve" smooth="yes"/>
      <point x="1013" y="787"/>
      <point x="985" y="865"/>
      <point x="939" y="928" type="curve"/>
      <point x="1070" y="1059" type="line"/>
      <point x="916" y="1211" type="line"/>
      <point x="770" y="1063" type="line"/>
      <point x="705" y="1099"/>
      <point x="629" y="1118"/>
      <point x="555" y="1118" type="curve" smooth="yes"/>
      <point x="481" y="1118"/>
      <point x="405" y="1099"/>
      <point x="339" y="1063" type="curve"/>
      <point x="194" y="1211" type="line"/>
      <point x="42" y="1059" type="line"/>
      <point x="168" y="928" type="line"/>
      <point x="126" y="865"/>
      <point x="99" y="787"/>
      <point x="99" y="696" type="curve" smooth="yes"/>
      <point x="99" y="603"/>
      <point x="126" y="525"/>
      <point x="170" y="460" type="curve"/>
      <point x="42" y="331" type="line"/>
    </contour>
    <contour>
      <point x="555" y="485" type="curve" smooth="yes"/>
      <point x="451" y="485"/>
      <point x="371" y="567"/>
      <point x="371" y="696" type="curve" smooth="yes"/>
      <point x="371" y="823"/>
      <point x="451" y="905"/>
      <point x="555" y="905" type="curve" smooth="yes"/>
      <point x="658" y="905"/>
      <point x="740" y="823"/>
      <point x="740" y="696" type="curve" smooth="yes"/>
      <point x="740" y="567"/>
      <point x="658" y="485"/>
    </contour>
  </outline>
</glyph>
<glyph name="section" format="2">
  <advance width="1112"/>
  <unicode hex="00A7"/>
  <outline>
    <contour>
      <point x="506" y="-175" type="curve" smooth="yes"/>
      <point x="768" y="-175"/>
      <point x="909" y="-33"/>
      <point x="909" y="156" type="curve" smooth="yes"/>
      <point x="909" y="519"/>
      <point x="335" y="487"/>
      <point x="335" y="711" type="curve" smooth="yes"/>
      <point x="335" y="783"/>
      <point x="384" y="833"/>
      <point x="472" y="867" type="curve"/>
      <point x="322" y="994" type="line"/>
      <point x="177" y="943"/>
      <point x="80" y="819"/>
      <point x="80" y="690" type="curve" smooth="yes"/>
      <point x="80" y="293"/>
      <point x="635" y="308"/>
      <point x="635" y="141" type="curve" smooth="yes"/>
      <point x="635" y="86"/>
      <point x="595" y="48"/>
      <point x="506" y="48" type="curve" smooth="yes"/>
      <point x="422" y="48"/>
      <point x="344" y="86"/>
      <point x="274" y="156" type="curve"/>
      <point x="99" y="2" type="line"/>
      <point x="192" y="-118"/>
      <point x="352" y="-175"/>
    </contour>
    <contour>
      <point x="806" y="291" type="line"/>
      <point x="949" y="360"/>
      <point x="1032" y="458"/>
      <point x="1032" y="599" type="curve" smooth="yes"/>
      <point x="1032" y="981"/>
      <point x="460" y="992"/>
      <point x="460" y="1146" type="curve" smooth="yes"/>
      <point x="460" y="1199"/>
      <point x="498" y="1230"/>
      <point x="576" y="1230" type="curve" smooth="yes"/>
      <point x="650" y="1230"/>
      <point x="732" y="1186"/>
      <point x="797" y="1129" type="curve"/>
      <point x="937" y="1319" type="line"/>
      <point x="852" y="1386"/>
      <point x="719" y="1456"/>
      <point x="559" y="1456" type="curve" smooth="yes"/>
      <point x="325" y="1456"/>
      <point x="187" y="1321"/>
      <point x="187" y="1133" type="curve" smooth="yes"/>
      <point x="187" y="768"/>
      <point x="774" y="808"/>
      <point x="774" y="574" type="curve" smooth="yes"/>
      <point x="774" y="496"/>
      <point x="730" y="451"/>
      <point x="633" y="415" type="curve"/>
    </contour>
  </outline>
</glyph>
<glyph name="registered" format="2">
  <advance width="971"/>
  <unicode hex="00AE"/>
  <outline>
    <contour>
      <point x="485" y="658" type="curve" smooth="yes"/>
      <point x="715" y="658"/>
      <point x="901" y="835"/>
      <point x="901" y="1082" type="curve" smooth="yes"/>
      <point x="901" y="1332"/>
      <point x="715" y="1509"/>
      <point x="485" y="1509" type="curve" smooth="yes"/>
      <point x="255" y="1509"/>
      <point x="67" y="1332"/>
      <point x="67" y="1082" type="curve" smooth="yes"/>
      <point x="67" y="835"/>
      <point x="255" y="658"/>
    </contour>
    <contour>
      <point x="485" y="759" type="curve" smooth="yes"/>
      <point x="308" y="759"/>
      <point x="181" y="886"/>
      <point x="181" y="1082" type="curve" smooth="yes"/>
      <point x="181" y="1279"/>
      <point x="308" y="1408"/>
      <point x="485" y="1408" type="curve" smooth="yes"/>
      <point x="662" y="1408"/>
      <point x="789" y="1279"/>
      <point x="789" y="1082" type="curve" smooth="yes"/>
      <point x="789" y="886"/>
      <point x="662" y="759"/>
    </contour>
    <contour>
      <point x="314" y="878" type="line"/>
      <point x="434" y="878" type="line"/>
      <point x="434" y="1006" type="line"/>
      <point x="496" y="1006" type="line"/>
      <point x="561" y="878" type="line"/>
      <point x="686" y="878" type="line"/>
      <point x="597" y="1040" type="line"/>
      <point x="648" y="1063"/>
      <point x="673" y="1108"/>
      <point x="673" y="1156" type="curve" smooth="yes"/>
      <point x="673" y="1251"/>
      <point x="599" y="1294"/>
      <point x="502" y="1294" type="curve" smooth="yes"/>
      <point x="314" y="1294" type="line"/>
    </contour>
    <contour>
      <point x="434" y="1089" type="line"/>
      <point x="434" y="1203" type="line"/>
      <point x="479" y="1203" type="line" smooth="yes"/>
      <point x="523" y="1203"/>
      <point x="544" y="1180"/>
      <point x="544" y="1148" type="curve" smooth="yes"/>
      <point x="544" y="1116"/>
      <point x="521" y="1089"/>
      <point x="479" y="1089" type="curve" smooth="yes"/>
    </contour>
  </outline>
</glyph>
<glyph name="degree" format="2">
  <advance width="766"/>
  <unicode hex="00B0"/>
  <outline>
    <contour>
      <point x="386" y="842" type="curve" smooth="yes"/>
      <point x="555" y="842"/>
      <point x="688" y="968"/>
      <point x="688" y="1144" type="curve" smooth="yes"/>
      <point x="688" y="1321"/>
      <point x="555" y="1448"/>
      <point x="386" y="1448" type="curve" smooth="yes"/>
      <point x="215" y="1448"/>
      <point x="82" y="1321"/>
      <point x="82" y="1144" type="curve" smooth="yes"/>
      <point x="82" y="968"/>
      <point x="215" y="842"/>
    </contour>
    <contour>
      <point x="386" y="990" type="curve" smooth="yes"/>
      <point x="301" y="990"/>
      <point x="242" y="1053"/>
      <point x="242" y="1144" type="curve" smooth="yes"/>
      <point x="242" y="1237"/>
      <point x="301" y="1300"/>
      <point x="386" y="1300" type="curve" smooth="yes"/>
      <point x="470" y="1300"/>
      <point x="527" y="1237"/>
      <point x="527" y="1144" type="curve" smooth="yes"/>
      <point x="527" y="1053"/>
      <point x="470" y="990"/>
    </contour>
  </outline>
</glyph>
<glyph name="mu" format="2">
  <advance width="1249"/>
  <unicode hex="00B5"/>
  <outline>
    <contour>
      <point x="137" y="-373" type="line"/>
      <point x="445" y="-373" type="line"/>
      <point x="430" y="-227"/>
      <point x="426" y="-122"/>
      <point x="424" y="35" type="curve"/>
      <point x="460" y="-6"/>
      <point x="506" y="-14"/>
      <point x="559" y="-14" type="curve" smooth="yes"/>
      <point x="650" y="-14"/>
      <point x="730" y="42"/>
      <point x="783" y="149" type="curve"/>
      <point x="791" y="149" type="line"/>
      <point x="823" y="33"/>
      <point x="914" y="-25"/>
      <point x="1057" y="-25" type="curve"/>
      <point x="1146" y="-25"/>
      <point x="1194" y="-10"/>
      <point x="1239" y="8" type="curve"/>
      <point x="1203" y="232" type="line"/>
      <point x="1180" y="223"/>
      <point x="1154" y="219"/>
      <point x="1135" y="219" type="curve" smooth="yes"/>
      <point x="1078" y="219"/>
      <point x="1042" y="242"/>
      <point x="1042" y="310" type="curve" smooth="yes"/>
      <point x="1042" y="487"/>
      <point x="1057" y="800"/>
      <point x="1063" y="1047" type="curve"/>
      <point x="757" y="1047" type="line"/>
      <point x="757" y="373" type="line"/>
      <point x="700" y="270"/>
      <point x="645" y="234"/>
      <point x="574" y="234" type="curve" smooth="yes"/>
      <point x="483" y="234"/>
      <point x="443" y="284"/>
      <point x="443" y="434" type="curve" smooth="yes"/>
      <point x="443" y="1047" type="line"/>
      <point x="137" y="1047" type="line"/>
    </contour>
  </outline>
</glyph>
<glyph name="paragraph" format="2">
  <advance width="1336"/>
  <unicode hex="00B6"/>
  <outline>
    <contour>
      <point x="829" y="-168" type="line"/>
      <point x="1133" y="-168" type="line"/>
      <point x="1133" y="1376" type="line"/>
      <point x="829" y="1376" type="line"/>
    </contour>
    <contour>
      <point x="624" y="420" type="curve" smooth="yes"/>
      <point x="711" y="420" type="line"/>
      <point x="711" y="1376" type="line"/>
      <point x="618" y="1376" type="line" smooth="yes"/>
      <point x="325" y="1376"/>
      <point x="82" y="1260"/>
      <point x="82" y="907" type="curve" smooth="yes"/>
      <point x="82" y="582"/>
      <point x="327" y="420"/>
    </contour>
  </outline>
</glyph>
<glyph name="questiondown" format="2">
  <advance width="975"/>
  <unicode hex="00BF"/>
  <outline>
    <contour>
      <point x="487" y="-392" type="curve" smooth="yes"/>
      <point x="652" y="-392"/>
      <point x="787" y="-314"/>
      <point x="888" y="-202" type="curve"/>
      <point x="719" y="-48" type="line"/>
      <point x="662" y="-107"/>
      <point x="603" y="-147"/>
      <point x="525" y="-147" type="curve" smooth="yes"/>
      <point x="439" y="-147"/>
      <point x="379" y="-99"/>
      <point x="379" y="-10" type="curve" smooth="yes"/>
      <point x="379" y="151"/>
      <point x="692" y="270"/>
      <point x="648" y="561" type="curve"/>
      <point x="382" y="561" type="line"/>
      <point x="407" y="310"/>
      <point x="88" y="227"/>
      <point x="88" y="-31" type="curve" smooth="yes"/>
      <point x="88" y="-280"/>
      <point x="261" y="-392"/>
    </contour>
    <contour>
      <point x="515" y="686" type="curve" smooth="yes"/>
      <point x="620" y="686"/>
      <point x="700" y="770"/>
      <point x="700" y="880" type="curve" smooth="yes"/>
      <point x="700" y="987"/>
      <point x="620" y="1072"/>
      <point x="515" y="1072" type="curve" smooth="yes"/>
      <point x="409" y="1072"/>
      <point x="331" y="987"/>
      <point x="331" y="880" type="curve" smooth="yes"/>
      <point x="331" y="770"/>
      <point x="409" y="686"/>
    </contour>
  </outline>
</glyph>
<glyph name="AE" format="2">
  <advance width="1781"/>
  <unicode hex="00C6"/>
  <anchor x="1139" y="1422" name="aboveUC"/>
  <outline>
    <contour>
      <point x="-27" y="0" type="line"/>
      <point x="293" y="0" type="line"/>
      <point x="639" y="753" type="line"/>
      <point x="694" y="876"/>
      <point x="749" y="1009"/>
      <point x="808" y="1146" type="curve"/>
      <point x="816" y="1146" type="line"/>
      <point x="816" y="0" type="line"/>
      <point x="1671" y="0" type="line"/>
      <point x="1671" y="255" type="line"/>
      <point x="1120" y="255" type="line"/>
      <point x="1120" y="580" type="line"/>
      <point x="1568" y="580" type="line"/>
      <point x="1568" y="838" type="line"/>
      <point x="1120" y="838" type="line"/>
      <point x="1120" y="1120" type="line"/>
      <point x="1650" y="1120" type="line"/>
      <point x="1650" y="1376" type="line"/>
      <point x="629" y="1376" type="line"/>
    </contour>
    <contour>
      <point x="293" y="316" type="line"/>
      <point x="977" y="316" type="line"/>
      <point x="977" y="555" type="line"/>
      <point x="293" y="555" type="line"/>
    </contour>
  </outline>
</glyph>
<glyph name="Thorn" format="2">
  <advance width="1298"/>
  <unicode hex="00DE"/>
  <outline>
    <contour>
      <point x="162" y="0" type="line"/>
      <point x="468" y="0" type="line"/>
      <point x="468" y="261" type="line"/>
      <point x="662" y="261" type="line" smooth="yes"/>
      <point x="954" y="261"/>
      <point x="1199" y="403"/>
      <point x="1199" y="726" type="curve" smooth="yes"/>
      <point x="1199" y="1059"/>
      <point x="960" y="1167"/>
      <point x="662" y="1167" type="curve" smooth="yes"/>
      <point x="468" y="1167" type="line"/>
      <point x="468" y="1376" type="line"/>
      <point x="162" y="1376" type="line"/>
    </contour>
    <contour>
      <point x="468" y="504" type="line"/>
      <point x="468" y="924" type="line"/>
      <point x="643" y="924" type="line" smooth="yes"/>
      <point x="810" y="924"/>
      <point x="901" y="871"/>
      <point x="901" y="726" type="curve" smooth="yes"/>
      <point x="901" y="580"/>
      <point x="819" y="504"/>
      <point x="643" y="504" type="curve" smooth="yes"/>
    </contour>
  </outline>
</glyph>
<glyph name="germandbls" format="2">
  <advance width="1329"/>
  <unicode hex="00DF"/>
  <outline>
    <contour>
      <point x="884" y="-25" type="curve" smooth="yes"/>
      <point x="1139" y="-25"/>
      <point x="1272" y="126"/>
      <point x="1272" y="318" type="curve" smooth="yes"/>
      <point x="1272" y="643"/>
      <point x="926" y="635"/>
      <point x="926" y="776" type="curve" smooth="yes"/>
      <point x="926" y="886"/>
      <point x="1106" y="949"/>
      <point x="1106" y="1152" type="curve" smooth="yes"/>
      <point x="1106" y="1332"/>
      <point x="943" y="1500"/>
      <point x="656" y="1500" type="curve" smooth="yes"/>
      <point x="316" y="1500"/>
      <point x="137" y="1302"/>
      <point x="137" y="1030" type="curve" smooth="yes"/>
      <point x="137" y="0" type="line"/>
      <point x="439" y="0" type="line"/>
      <point x="439" y="994" type="line" smooth="yes"/>
      <point x="439" y="1161"/>
      <point x="523" y="1262"/>
      <point x="656" y="1262" type="curve" smooth="yes"/>
      <point x="747" y="1262"/>
      <point x="814" y="1199"/>
      <point x="814" y="1116" type="curve" smooth="yes"/>
      <point x="814" y="960"/>
      <point x="648" y="903"/>
      <point x="648" y="738" type="curve" smooth="yes"/>
      <point x="648" y="462"/>
      <point x="994" y="468"/>
      <point x="994" y="306" type="curve" smooth="yes"/>
      <point x="994" y="244"/>
      <point x="949" y="200"/>
      <point x="876" y="200" type="curve" smooth="yes"/>
      <point x="810" y="200"/>
      <point x="743" y="221"/>
      <point x="675" y="276" type="curve"/>
      <point x="567" y="71" type="line"/>
      <point x="669" y="8"/>
      <point x="762" y="-25"/>
    </contour>
  </outline>
</glyph>
<glyph name="eth" format="2">
  <advance width="1180"/>
  <unicode hex="00F0"/>
  <anchor x="637" y="1524" name="aboveUC"/>
  <anchor x="569" y="-46" name="belowLC"/>
  <outline>
    <contour>
      <point x="574" y="-25" type="curve" smooth="yes"/>
      <point x="884" y="-25"/>
      <point x="1074" y="219"/>
      <point x="1074" y="561" type="curve" smooth="yes"/>
      <point x="1074" y="1104"/>
      <point x="726" y="1380"/>
      <point x="371" y="1562" type="curve"/>
      <point x="240" y="1376" type="line"/>
      <point x="603" y="1188"/>
      <point x="789" y="979"/>
      <point x="789" y="544" type="curve" smooth="yes"/>
      <point x="789" y="325"/>
      <point x="707" y="219"/>
      <point x="584" y="219" type="curve" smooth="yes"/>
      <point x="468" y="219"/>
      <point x="367" y="312"/>
      <point x="367" y="481" type="curve" smooth="yes"/>
      <point x="367" y="650"/>
      <point x="455" y="734"/>
      <point x="580" y="734" type="curve" smooth="yes"/>
      <point x="658" y="734"/>
      <point x="732" y="707"/>
      <point x="800" y="622" type="curve"/>
      <point x="797" y="785" type="line"/>
      <point x="745" y="911"/>
      <point x="631" y="958"/>
      <point x="519" y="958" type="curve" smooth="yes"/>
      <point x="297" y="958"/>
      <point x="90" y="783"/>
      <point x="90" y="481" type="curve" smooth="yes"/>
      <point x="90" y="168"/>
      <point x="314" y="-25"/>
    </contour>
    <contour>
      <point x="263" y="1004" type="line"/>
      <point x="1044" y="1397" type="line"/>
      <point x="964" y="1534" type="line"/>
      <point x="183" y="1139" type="line"/>
    </contour>
  </outline>
</glyph>
<glyph name="oslash" format="2">
  <advance width="1171"/>
  <unicode hex="00F8"/>
  <anchor x="584" y="1093" name="aboveLC"/>
  <anchor x="584" y="-46" name="belowLC"/>
  <outline>
    <contour>
      <point x="584" y="-25" type="curve" smooth="yes"/>
      <point x="850" y="-25"/>
      <point x="1093" y="175"/>
      <point x="1093" y="523" type="curve" smooth="yes"/>
      <point x="1093" y="869"/>
      <point x="850" y="1072"/>
      <point x="584" y="1072" type="curve" smooth="yes"/>
      <point x="320" y="1072"/>
      <point x="75" y="869"/>
      <point x="75" y="523" type="curve" smooth="yes"/>
      <point x="75" y="175"/>
      <point x="320" y="-25"/>
    </contour>
    <contour>
      <point x="584" y="211" type="curve" smooth="yes"/>
      <point x="451" y="211"/>
      <point x="371" y="318"/>
      <point x="371" y="540" type="curve" smooth="yes"/>
      <point x="371" y="715"/>
      <point x="453" y="835"/>
      <point x="584" y="835" type="curve" smooth="yes"/>
      <point x="719" y="835"/>
      <point x="797" y="726"/>
      <point x="797" y="506" type="curve" smooth="yes"/>
      <point x="797" y="329"/>
      <point x="715" y="211"/>
    </contour>
    <contour>
      <point x="211" y="-52" type="line"/>
      <point x="1074" y="1013" type="line"/>
      <point x="958" y="1101" type="line"/>
      <point x="97" y="35" type="line"/>
    </contour>
  </outline>
</glyph>
<glyph name="thorn" format="2">
  <advance width="1207"/>
  <unicode hex="00FE"/>
  <anchor x="369" y="1524" name="aboveUC"/>
  <anchor x="303" y="-426" name="belowLC"/>
  <outline>
    <contour>
      <point x="137" y="-390" type="line"/>
      <point x="443" y="-390" type="line"/>
      <point x="443" y="-82" type="line"/>
      <point x="434" y="73" type="line"/>
      <point x="508" y="10"/>
      <point x="582" y="-25"/>
      <point x="683" y="-25" type="curve" smooth="yes"/>
      <point x="909" y="-25"/>
      <point x="1125" y="181"/>
      <point x="1125" y="540" type="curve" smooth="yes"/>
      <point x="1125" y="861"/>
      <point x="962" y="1072"/>
      <point x="698" y="1072" type="curve" smooth="yes"/>
      <point x="601" y="1072"/>
      <point x="508" y="1030"/>
      <point x="434" y="966" type="curve"/>
      <point x="443" y="1116" type="line"/>
      <point x="443" y="1479" type="line"/>
      <point x="137" y="1479" type="line"/>
    </contour>
    <contour>
      <point x="612" y="223" type="curve" smooth="yes"/>
      <point x="559" y="223"/>
      <point x="500" y="240"/>
      <point x="443" y="291" type="curve"/>
      <point x="443" y="726" type="line"/>
      <point x="504" y="793"/>
      <point x="561" y="823"/>
      <point x="626" y="823" type="curve" smooth="yes"/>
      <point x="753" y="823"/>
      <point x="812" y="726"/>
      <point x="812" y="536" type="curve" smooth="yes"/>
      <point x="812" y="318"/>
      <point x="724" y="223"/>
    </contour>
  </outline>
</glyph>
<glyph name="Eng" format="2">
  <advance width="1403"/>
  <unicode hex="014A"/>
  <anchor x="764" y="1422" name="aboveUC"/>
  <anchor x="688" y="-46" name="belowLC"/>
  <outline>
    <contour>
      <point x="869" y="-415" type="curve" smooth="yes"/>
      <point x="1176" y="-415"/>
      <point x="1304" y="-199"/>
      <point x="1304" y="37" type="curve" smooth="yes"/>
      <point x="1304" y="228"/>
      <point x="1304" y="518"/>
      <point x="1304" y="770" type="curve" smooth="yes"/>
      <point x="1304" y="1261"/>
      <point x="1131" y="1401"/>
      <point x="861" y="1401" type="curve" smooth="yes"/>
      <point x="722" y="1401"/>
      <point x="561" y="1330"/>
      <point x="458" y="1226" type="curve"/>
      <point x="458" y="1376" type="line"/>
      <point x="162" y="1376" type="line"/>
      <point x="162" y="0" type="line"/>
      <point x="468" y="0" type="line"/>
      <point x="468" y="962" type="line"/>
      <point x="538" y="1066"/>
      <point x="684" y="1137"/>
      <point x="770" y="1137" type="curve" smooth="yes"/>
      <point x="937" y="1137"/>
      <point x="992" y="1059"/>
      <point x="992" y="700" type="curve" smooth="yes"/>
      <point x="992" y="456"/>
      <point x="992" y="172"/>
      <point x="992" y="27" type="curve" smooth="yes"/>
      <point x="992" y="-55"/>
      <point x="951" y="-131"/>
      <point x="843" y="-131" type="curve" smooth="yes"/>
      <point x="807" y="-131"/>
      <point x="770" y="-127"/>
      <point x="747" y="-116" type="curve"/>
      <point x="679" y="-378" type="line"/>
      <point x="721" y="-400"/>
      <point x="808" y="-415"/>
    </contour>
  </outline>
</glyph>
<glyph name="Schwa" format="2">
  <advance width="1418"/>
  <unicode hex="018F"/>
  <anchor x="738" y="1418" name="aboveUC"/>
  <anchor x="717" y="-46" name="belowLC"/>
  <outline>
    <contour>
      <point x="713" y="-25" type="curve" smooth="yes"/>
      <point x="1076" y="-25"/>
      <point x="1325" y="219"/>
      <point x="1325" y="688" type="curve" smooth="yes"/>
      <point x="1325" y="1156"/>
      <point x="1070" y="1401"/>
      <point x="682" y="1401" type="curve" smooth="yes"/>
      <point x="458" y="1401"/>
      <point x="282" y="1317"/>
      <point x="143" y="1186" type="curve"/>
      <point x="306" y="986" type="line"/>
      <point x="398" y="1071"/>
      <point x="516" y="1135"/>
      <point x="657" y="1135" type="curve" smooth="yes"/>
      <point x="875" y="1135"/>
      <point x="1011" y="1009"/>
      <point x="1011" y="688" type="curve" smooth="yes"/>
      <point x="1011" y="354"/>
      <point x="865" y="240"/>
      <point x="717" y="240" type="curve" smooth="yes"/>
      <point x="552" y="240"/>
      <point x="428" y="335"/>
      <point x="424" y="548" type="curve"/>
      <point x="1059" y="548" type="line"/>
      <point x="1059" y="806" type="line"/>
      <point x="113" y="806" type="line"/>
      <point x="105" y="764"/>
      <point x="101" y="717"/>
      <point x="101" y="679" type="curve" smooth="yes"/>
      <point x="101" y="211"/>
      <point x="337" y="-25"/>
    </contour>
  </outline>
</glyph>
<glyph name="florin" format="2">
  <advance width="715"/>
  <unicode hex="0192"/>
  <anchor x="506" y="1524" name="aboveUC"/>
  <anchor x="223" y="-426" name="belowLC"/>
  <outline>
    <contour>
      <point x="124" y="-415" type="curve" smooth="yes"/>
      <point x="407" y="-415"/>
      <point x="496" y="-225"/>
      <point x="496" y="2" type="curve" smooth="yes"/>
      <point x="496" y="1114" type="line" smooth="yes"/>
      <point x="496" y="1222"/>
      <point x="538" y="1266"/>
      <point x="616" y="1266" type="curve" smooth="yes"/>
      <point x="650" y="1266"/>
      <point x="686" y="1260"/>
      <point x="721" y="1251" type="curve"/>
      <point x="778" y="1467" type="line"/>
      <point x="734" y="1486"/>
      <point x="658" y="1505"/>
      <point x="572" y="1505" type="curve" smooth="yes"/>
      <point x="293" y="1505"/>
      <point x="189" y="1325"/>
      <point x="189" y="1106" type="curve" smooth="yes"/>
      <point x="189" y="-6" type="line" smooth="yes"/>
      <point x="189" y="-124"/>
      <point x="162" y="-177"/>
      <point x="78" y="-177" type="curve" smooth="yes"/>
      <point x="50" y="-177"/>
      <point x="25" y="-170"/>
      <point x="-4" y="-162" type="curve"/>
      <point x="-59" y="-386" type="line"/>
      <point x="-14" y="-403"/>
      <point x="40" y="-415"/>
    </contour>
    <contour>
      <point x="50" y="806" type="line"/>
      <point x="683" y="806" type="line"/>
      <point x="683" y="1047" type="line"/>
      <point x="206" y="1047" type="line"/>
      <point x="50" y="1034" type="line"/>
    </contour>
  </outline>
</glyph>
<glyph name="dotlessj" format="2">
  <advance width="584"/>
  <unicode hex="0237"/>
  <anchor x="293" y="1093" name="aboveLC"/>
  <anchor x="173" y="-426" name="belowLC"/>
  <outline>
    <contour>
      <point x="75" y="-415" type="curve" smooth="yes"/>
      <point x="358" y="-415"/>
      <point x="445" y="-225"/>
      <point x="445" y="2" type="curve" smooth="yes"/>
      <point x="445" y="1047" type="line"/>
      <point x="141" y="1047" type="line"/>
      <point x="141" y="-6" type="line" smooth="yes"/>
      <point x="141" y="-124"/>
      <point x="113" y="-177"/>
      <point x="29" y="-177" type="curve" smooth="yes"/>
      <point x="2" y="-177"/>
      <point x="-25" y="-170"/>
      <point x="-52" y="-162" type="curve"/>
      <point x="-107" y="-386" type="line"/>
      <point x="-63" y="-403"/>
      <point x="-8" y="-415"/>
    </contour>
  </outline>
</glyph>
<glyph name="schwa" format="2">
  <advance width="1091"/>
  <unicode hex="0259"/>
  <anchor x="540" y="1093" name="aboveLC"/>
  <anchor x="529" y="-46" name="belowLC"/>
  <anchor x="529" y="0" name="ogonekLC"/>
  <outline>
    <contour>
      <point x="525" y="-25" type="curve" smooth="yes"/>
      <point x="787" y="-25"/>
      <point x="1013" y="183"/>
      <point x="1013" y="523" type="curve" smooth="yes"/>
      <point x="1013" y="865"/>
      <point x="802" y="1072"/>
      <point x="527" y="1072" type="curve" smooth="yes"/>
      <point x="394" y="1072"/>
      <point x="257" y="1042"/>
      <point x="143" y="964" type="curve"/>
      <point x="244" y="770" type="line"/>
      <point x="318" y="814"/>
      <point x="394" y="840"/>
      <point x="474" y="840" type="curve" smooth="yes"/>
      <point x="607" y="840"/>
      <point x="694" y="768"/>
      <point x="719" y="616" type="curve"/>
      <point x="88" y="616" type="line"/>
      <point x="84" y="591"/>
      <point x="75" y="536"/>
      <point x="75" y="481" type="curve" smooth="yes"/>
      <point x="75" y="189"/>
      <point x="230" y="-25"/>
    </contour>
    <contour>
      <point x="519" y="206" type="curve" smooth="yes"/>
      <point x="392" y="206"/>
      <point x="337" y="291"/>
      <point x="337" y="415" type="curve"/>
      <point x="721" y="415" type="line"/>
      <point x="700" y="270"/>
      <point x="622" y="206"/>
    </contour>
  </outline>
</glyph>
<glyph name="acutecomb" format="2">
  <unicode hex="0301"/>
  <anchor x="0" y="1093" name="_aboveLC"/>
  <outline>
    <contour>
      <point x="-86" y="1207" type="line"/>
      <point x="365" y="1538" type="line"/>
      <point x="192" y="1739" type="line"/>
      <point x="-236" y="1357" type="line"/>
    </contour>
  </outline>
</glyph>
<glyph name="circumflexcmb" format="2">
  <unicode hex="0302"/>
  <anchor x="0" y="1093" name="_aboveLC"/>
  <anchor x="0" y="1557" name="aboveLC"/>
  <outline>
    <contour>
      <point x="-268" y="1184" type="line"/>
      <point x="-4" y="1380" type="line"/>
      <point x="4" y="1380" type="line"/>
      <point x="268" y="1184" type="line"/>
      <point x="384" y="1294" type="line"/>
      <point x="154" y="1570" type="line"/>
      <point x="-154" y="1570" type="line"/>
      <point x="-384" y="1294" type="line"/>
    </contour>
  </outline>
</glyph>
<glyph name="tildecomb" format="2">
  <unicode hex="0303"/>
  <anchor x="0" y="1093" name="_aboveLC"/>
  <outline>
    <contour>
      <point x="141" y="1211" type="curve" smooth="yes"/>
      <point x="301" y="1211"/>
      <point x="394" y="1315"/>
      <point x="398" y="1530" type="curve"/>
      <point x="208" y="1541" type="line"/>
      <point x="200" y="1458"/>
      <point x="177" y="1422"/>
      <point x="135" y="1422" type="curve" smooth="yes"/>
      <point x="65" y="1422"/>
      <point x="-6" y="1557"/>
      <point x="-139" y="1557" type="curve" smooth="yes"/>
      <point x="-301" y="1557"/>
      <point x="-394" y="1454"/>
      <point x="-398" y="1239" type="curve"/>
      <point x="-208" y="1228" type="line"/>
      <point x="-200" y="1313"/>
      <point x="-177" y="1346"/>
      <point x="-135" y="1346" type="curve" smooth="yes"/>
      <point x="-65" y="1346"/>
      <point x="6" y="1211"/>
    </contour>
  </outline>
</glyph>
<glyph name="macroncmb" format="2">
  <unicode hex="0304"/>
  <anchor x="0" y="1093" name="_aboveLC"/>
  <anchor x="0" y="1456" name="aboveLC"/>
  <outline>
    <contour>
      <point x="-310" y="1249" type="line"/>
      <point x="310" y="1249" type="line"/>
      <point x="310" y="1443" type="line"/>
      <point x="-310" y="1443" type="line"/>
    </contour>
  </outline>
</glyph>
<glyph name="brevecmb" format="2">
  <unicode hex="0306"/>
  <anchor x="0" y="1093" name="_aboveLC"/>
  <outline>
    <contour>
      <point x="0" y="1207" type="curve" smooth="yes"/>
      <point x="242" y="1207"/>
      <point x="348" y="1353"/>
      <point x="356" y="1538" type="curve"/>
      <point x="181" y="1568" type="line"/>
      <point x="168" y="1475"/>
      <point x="111" y="1397"/>
      <point x="0" y="1397" type="curve" smooth="yes"/>
      <point x="-111" y="1397"/>
      <point x="-168" y="1475"/>
      <point x="-181" y="1568" type="curve"/>
      <point x="-356" y="1538" type="line"/>
      <point x="-348" y="1353"/>
      <point x="-240" y="1207"/>
    </contour>
  </outline>
</glyph>
<glyph name="dotaccentcmb" format="2">
  <unicode hex="0307"/>
  <anchor x="0" y="1093" name="_aboveLC"/>
  <anchor x="0" y="1517" name="aboveLC"/>
  <outline>
    <contour>
      <point x="0" y="1201" type="curve" smooth="yes"/>
      <point x="103" y="1201"/>
      <point x="173" y="1266"/>
      <point x="173" y="1363" type="curve" smooth="yes"/>
      <point x="173" y="1458"/>
      <point x="103" y="1522"/>
      <point x="0" y="1522" type="curve" smooth="yes"/>
      <point x="-103" y="1522"/>
      <point x="-173" y="1458"/>
      <point x="-173" y="1363" type="curve" smooth="yes"/>
      <point x="-173" y="1266"/>
      <point x="-103" y="1201"/>
    </contour>
  </outline>
</glyph>
<glyph name="dieresiscmb" format="2">
  <unicode hex="0308"/>
  <anchor x="0" y="1093" name="_aboveLC"/>
  <anchor x="0" y="1517" name="aboveLC"/>
  <outline>
    <contour>
      <point x="-230" y="1203" type="curve" smooth="yes"/>
      <point x="-141" y="1203"/>
      <point x="-80" y="1268"/>
      <point x="-80" y="1351" type="curve" smooth="yes"/>
      <point x="-80" y="1435"/>
      <point x="-141" y="1500"/>
      <point x="-230" y="1500" type="curve" smooth="yes"/>
      <point x="-316" y="1500"/>
      <point x="-377" y="1435"/>
      <point x="-377" y="1351" type="curve" smooth="yes"/>
      <point x="-377" y="1268"/>
      <point x="-316" y="1203"/>
    </contour>
    <contour>
      <point x="230" y="1203" type="curve" smooth="yes"/>
      <point x="316" y="1203"/>
      <point x="377" y="1268"/>
      <point x="377" y="1351" type="curve" smooth="yes"/>
      <point x="377" y="1435"/>
      <point x="316" y="1500"/>
      <point x="230" y="1500" type="curve" smooth="yes"/>
      <point x="141" y="1500"/>
      <point x="80" y="1435"/>
      <point x="80" y="1351" type="curve" smooth="yes"/>
      <point x="80" y="1268"/>
      <point x="141" y="1203"/>
    </contour>
  </outline>
</glyph>
<glyph name="ogonekcmb" format="2">
  <unicode hex="0328"/>
  <anchor x="0" y="0" name="_ogonekLC"/>
  <outline>
    <contour>
      <point x="25" y="-460" type="curve" smooth="yes"/>
      <point x="103" y="-460"/>
      <point x="194" y="-430"/>
      <point x="251" y="-388" type="curve"/>
      <point x="187" y="-230" type="line"/>
      <point x="160" y="-246"/>
      <point x="128" y="-259"/>
      <point x="88" y="-259" type="curve" smooth="yes"/>
      <point x="44" y="-259"/>
      <point x="0" y="-234"/>
      <point x="0" y="-179" type="curve" smooth="yes"/>
      <point x="0" y="-113"/>
      <point x="44" y="-50"/>
      <point x="113" y="4" type="curve"/>
      <point x="-78" y="4" type="line"/>
      <point x="-132" y="-35"/>
      <point x="-223" y="-130"/>
      <point x="-223" y="-249" type="curve" smooth="yes"/>
      <point x="-223" y="-392"/>
      <point x="-111" y="-460"/>
    </contour>
  </outline>
</glyph>
<glyph name="nonbreakinghyphen" format="2">
  <advance width="698"/>
  <unicode hex="2011"/>
  <outline>
    <contour>
      <point x="90" y="426" type="line"/>
      <point x="607" y="426" type="line"/>
      <point x="607" y="641" type="line"/>
      <point x="90" y="641" type="line"/>
    </contour>
  </outline>
</glyph>
<glyph name="endash" format="2">
  <advance width="1013"/>
  <unicode hex="2013"/>
  <outline>
    <contour>
      <point x="90" y="436" type="line"/>
      <point x="922" y="436" type="line"/>
      <point x="922" y="631" type="line"/>
      <point x="90" y="631" type="line"/>
    </contour>
  </outline>
</glyph>
<glyph name="quoteleft" format="2">
  <advance width="629"/>
  <unicode hex="2018"/>
  <outline>
    <contour>
      <point x="310" y="721" type="curve" smooth="yes"/>
      <point x="405" y="721"/>
      <point x="470" y="789"/>
      <point x="470" y="892" type="curve" smooth="yes"/>
      <point x="470" y="987"/>
      <point x="398" y="1044"/>
      <point x="310" y="1044" type="curve" smooth="yes"/>
      <point x="268" y="1044"/>
      <point x="230" y="1025"/>
      <point x="198" y="1000" type="curve"/>
      <point x="299" y="861" type="line"/>
      <point x="291" y="1040" type="line"/>
      <point x="291" y="1165"/>
      <point x="354" y="1247"/>
      <point x="481" y="1308" type="curve"/>
      <point x="411" y="1441" type="line"/>
      <point x="213" y="1344"/>
      <point x="116" y="1192"/>
      <point x="116" y="994" type="curve" smooth="yes"/>
      <point x="116" y="823"/>
      <point x="183" y="721"/>
    </contour>
  </outline>
</glyph>
<glyph name="bullet" format="2">
  <advance width="724"/>
  <unicode hex="2022"/>
  <outline>
    <contour>
      <point x="360" y="261" type="curve" smooth="yes"/>
      <point x="517" y="261"/>
      <point x="639" y="388"/>
      <point x="639" y="553" type="curve" smooth="yes"/>
      <point x="639" y="719"/>
      <point x="517" y="846"/>
      <point x="360" y="846" type="curve" smooth="yes"/>
      <point x="206" y="846"/>
      <point x="84" y="719"/>
      <point x="84" y="553" type="curve" smooth="yes"/>
      <point x="84" y="388"/>
      <point x="206" y="261"/>
    </contour>
  </outline>
</glyph>
<glyph name="guilsinglleft" format="2">
  <advance width="614"/>
  <unicode hex="2039"/>
  <outline>
    <contour>
      <point x="386" y="118" type="line"/>
      <point x="500" y="211" type="line"/>
      <point x="265" y="531" type="line"/>
      <point x="500" y="852" type="line"/>
      <point x="386" y="945" type="line"/>
      <point x="101" y="639" type="line"/>
      <point x="101" y="424" type="line"/>
    </contour>
  </outline>
</glyph>
<glyph name="trademark" format="2">
  <advance width="1435"/>
  <unicode hex="2122"/>
  <outline>
    <contour>
      <point x="192" y="764" type="line"/>
      <point x="390" y="764" type="line"/>
      <point x="390" y="1245" type="line"/>
      <point x="576" y="1245" type="line"/>
      <point x="576" y="1427" type="line"/>
      <point x="8" y="1427" type="line"/>
      <point x="8" y="1245" type="line"/>
      <point x="192" y="1245" type="line"/>
    </contour>
    <contour>
      <point x="667" y="764" type="line"/>
      <point x="848" y="764" type="line"/>
      <point x="848" y="971" type="line"/>
      <point x="825" y="1213" type="line"/>
      <point x="833" y="1213" type="line"/>
      <point x="956" y="861" type="line"/>
      <point x="1097" y="861" type="line"/>
      <point x="1218" y="1213" type="line"/>
      <point x="1226" y="1213" type="line"/>
      <point x="1203" y="971" type="line"/>
      <point x="1203" y="764" type="line"/>
      <point x="1384" y="764" type="line"/>
      <point x="1384" y="1427" type="line"/>
      <point x="1161" y="1427" type="line"/>
      <point x="1078" y="1218" type="line"/>
      <point x="1030" y="1074" type="line"/>
      <point x="1021" y="1074" type="line"/>
      <point x="975" y="1218" type="line"/>
      <point x="890" y="1427" type="line"/>
      <point x="667" y="1427" type="line"/>
    </contour>
  </outline>
</glyph>
<glyph name="Delta" format="2">
  <advance width="1346"/>
  <unicode hex="2206"/>
  <outline>
    <contour>
      <point x="71" y="0" type="line"/>
      <point x="1275" y="0" type="line"/>
      <point x="1275" y="183" type="line"/>
      <point x="854" y="1376" type="line"/>
      <point x="489" y="1376" type="line"/>
      <point x="71" y="183" type="line"/>
    </contour>
    <contour>
      <point x="398" y="255" type="line"/>
      <point x="544" y="728" type="line"/>
      <point x="662" y="1139" type="line"/>
      <point x="671" y="1139" type="line"/>
      <point x="791" y="728" type="line"/>
      <point x="939" y="255" type="line"/>
    </contour>
  </outline>
</glyph>
<glyph name="summation" format="2">
  <advance width="1125"/>
  <unicode hex="2211"/>
  <outline>
    <contour>
      <point x="54" y="-253" type="line"/>
      <point x="1106" y="-253" type="line"/>
      <point x="1106" y="2" type="line"/>
      <point x="432" y="2" type="line"/>
      <point x="432" y="10" type="line"/>
      <point x="804" y="542" type="line"/>
      <point x="447" y="1076" type="line"/>
      <point x="447" y="1085" type="line"/>
      <point x="1055" y="1085" type="line"/>
      <point x="1055" y="1340" type="line"/>
      <point x="75" y="1340" type="line"/>
      <point x="75" y="1161" type="line"/>
      <point x="493" y="542" type="line"/>
      <point x="54" y="-73" type="line"/>
    </contour>
  </outline>
</glyph>
<glyph name="minus" format="2">
  <advance width="1112"/>
  <unicode hex="2212"/>
  <outline>
    <contour>
      <point x="71" y="588" type="line"/>
      <point x="1040" y="588" type="line"/>
      <point x="1040" y="804" type="line"/>
      <point x="71" y="804" type="line"/>
    </contour>
  </outline>
</glyph>
<glyph name="infinity" format="2">
  <advance width="1714"/>
  <unicode hex="221E"/>
  <outline>
    <contour>
      <point x="1222" y="242" type="curve" smooth="yes"/>
      <point x="1450" y="242"/>
      <point x="1636" y="415"/>
      <point x="1636" y="717" type="curve" smooth="yes"/>
      <point x="1636" y="960"/>
      <point x="1460" y="1135"/>
      <point x="1237" y="1135" type="curve" smooth="yes"/>
      <point x="1068" y="1135"/>
      <point x="939" y="1044"/>
      <point x="831" y="905" type="curve"/>
      <point x="823" y="905" type="line"/>
      <point x="747" y="1009"/>
      <point x="639" y="1101"/>
      <point x="477" y="1101" type="curve" smooth="yes"/>
      <point x="240" y="1101"/>
      <point x="78" y="943"/>
      <point x="78" y="669" type="curve" smooth="yes"/>
      <point x="78" y="470"/>
      <point x="234" y="295"/>
      <point x="434" y="295" type="curve" smooth="yes"/>
      <point x="593" y="295"/>
      <point x="707" y="394"/>
      <point x="783" y="489" type="curve"/>
      <point x="791" y="489" type="line"/>
      <point x="922" y="318"/>
      <point x="1044" y="242"/>
    </contour>
    <contour>
      <point x="462" y="517" type="curve" smooth="yes"/>
      <point x="360" y="517"/>
      <point x="301" y="593"/>
      <point x="301" y="677" type="curve" smooth="yes"/>
      <point x="301" y="759"/>
      <point x="352" y="821"/>
      <point x="451" y="821" type="curve" smooth="yes"/>
      <point x="538" y="821"/>
      <point x="618" y="753"/>
      <point x="681" y="658" type="curve"/>
      <point x="624" y="574"/>
      <point x="550" y="517"/>
    </contour>
    <contour>
      <point x="1220" y="523" type="curve" smooth="yes"/>
      <point x="1101" y="523"/>
      <point x="1021" y="618"/>
      <point x="933" y="738" type="curve"/>
      <point x="1017" y="857"/>
      <point x="1112" y="914"/>
      <point x="1207" y="914" type="curve" smooth="yes"/>
      <point x="1334" y="914"/>
      <point x="1414" y="835"/>
      <point x="1414" y="709" type="curve" smooth="yes"/>
      <point x="1414" y="610"/>
      <point x="1340" y="523"/>
    </contour>
  </outline>
</glyph>
<glyph name="integral" format="2">
  <advance width="816"/>
  <unicode hex="222B"/>
  <outline>
    <contour>
      <point x="208" y="-333" type="curve" smooth="yes"/>
      <point x="536" y="-333"/>
      <point x="601" y="-109"/>
      <point x="601" y="185" type="curve" smooth="yes"/>
      <point x="601" y="534"/>
      <point x="521" y="835"/>
      <point x="521" y="1158" type="curve" smooth="yes"/>
      <point x="521" y="1357"/>
      <point x="546" y="1441"/>
      <point x="654" y="1441" type="curve" smooth="yes"/>
      <point x="683" y="1441"/>
      <point x="709" y="1439"/>
      <point x="730" y="1433" type="curve"/>
      <point x="759" y="1655" type="line"/>
      <point x="736" y="1661"/>
      <point x="690" y="1669"/>
      <point x="641" y="1669" type="curve" smooth="yes"/>
      <point x="312" y="1669"/>
      <point x="249" y="1446"/>
      <point x="249" y="1150" type="curve" smooth="yes"/>
      <point x="249" y="804"/>
      <point x="329" y="500"/>
      <point x="329" y="177" type="curve" smooth="yes"/>
      <point x="329" y="-23"/>
      <point x="303" y="-105"/>
      <point x="194" y="-105" type="curve" smooth="yes"/>
      <point x="164" y="-105"/>
      <point x="139" y="-101"/>
      <point x="118" y="-97" type="curve"/>
      <point x="88" y="-316" type="line"/>
      <point x="113" y="-325"/>
      <point x="160" y="-333"/>
    </contour>
  </outline>
</glyph>
<glyph name="lessequal" format="2">
  <advance width="1112"/>
  <unicode hex="2264"/>
  <outline>
    <contour>
      <point x="1040" y="325" type="line"/>
      <point x="1040" y="574" type="line"/>
      <point x="673" y="675" type="line"/>
      <point x="379" y="747" type="line"/>
      <point x="379" y="755" type="line"/>
      <point x="673" y="827" type="line"/>
      <point x="1040" y="928" type="line"/>
      <point x="1040" y="1180" type="line"/>
      <point x="71" y="878" type="line"/>
      <point x="71" y="624" type="line"/>
    </contour>
    <contour>
      <point x="71" y="0" type="line"/>
      <point x="1040" y="0" type="line"/>
      <point x="1040" y="215" type="line"/>
      <point x="71" y="215" type="line"/>
    </contour>
  </outline>
</glyph>
<glyph name="greaterequal" format="2">
  <advance width="1112"/>
  <unicode hex="2265"/>
  <outline>
    <contour>
      <point x="71" y="325" type="line"/>
      <point x="1040" y="624" type="line"/>
      <point x="1040" y="878" type="line"/>
      <point x="71" y="1180" type="line"/>
      <point x="71" y="928" type="line"/>
      <point x="439" y="827" type="line"/>
      <point x="732" y="755" type="line"/>
      <point x="732" y="747" type="line"/>
      <point x="439" y="675" type="line"/>
      <point x="71" y="574" type="line"/>
    </contour>
    <contour>
      <point x="71" y="0" type="line"/>
      <point x="1040" y="0" type="line"/>
      <point x="1040" y="215" type="line"/>
      <point x="71" y="215" type="line"/>
    </contour>
  </outline>
</glyph>
<glyph name="lozenge" format="2">
  <advance width="1154"/>
  <unicode hex="25CA"/>
  <outline>
    <contour>
      <point x="453" y="-21" type="line"/>
      <point x="700" y="-21" type="line"/>
      <point x="1044" y="696" type="line"/>
      <point x="700" y="1414" type="line"/>
      <point x="453" y="1414" type="line"/>
      <point x="109" y="696" type="line"/>
    </contour>
    <contour>
      <point x="572" y="234" type="line"/>
      <point x="458" y="489" type="line"/>
      <point x="360" y="696" type="line"/>
      <point x="458" y="903" type="line"/>
      <point x="572" y="1158" type="line"/>
      <point x="580" y="1158" type="line"/>
      <point x="694" y="903" type="line"/>
      <point x="791" y="696" type="line"/>
      <point x="694" y="489" type="line"/>
      <point x="580" y="234" type="line"/>
    </contour>
  </outline>
</glyph>
<glyph name="circledotted" format="2">
  <advance width="1220"/>
  <unicode hex="25CC"/>
  <anchor x="612" y="1093" name="aboveLC"/>
  <anchor x="994" y="1093" name="aboverightLC"/>
  <anchor x="612" y="0" name="baseLC"/>
  <anchor x="612" y="-46" name="belowLC"/>
  <anchor x="612" y="523" name="center"/>
  <anchor x="859" y="1047" name="hornLC"/>
  <anchor x="612" y="0" name="ogonekLC"/>
  <outline>
    <contour>
      <point x="221" y="202" type="curve" smooth="yes"/>
      <point x="276" y="202"/>
      <point x="310" y="236"/>
      <point x="310" y="293" type="curve" smooth="yes"/>
      <point x="310" y="350"/>
      <point x="274" y="384"/>
      <point x="221" y="384" type="curve" smooth="yes"/>
      <point x="177" y="384"/>
      <point x="137" y="350"/>
      <point x="137" y="293" type="curve" smooth="yes"/>
      <point x="137" y="236"/>
      <point x="177" y="202"/>
    </contour>
    <contour>
      <point x="162" y="432" type="curve" smooth="yes"/>
      <point x="217" y="432"/>
      <point x="253" y="466"/>
      <point x="253" y="525" type="curve" smooth="yes"/>
      <point x="253" y="580"/>
      <point x="215" y="612"/>
      <point x="162" y="612" type="curve" smooth="yes"/>
      <point x="118" y="612"/>
      <point x="75" y="580"/>
      <point x="75" y="525" type="curve" smooth="yes"/>
      <point x="75" y="466"/>
      <point x="118" y="432"/>
    </contour>
    <contour>
      <point x="221" y="662" type="curve" smooth="yes"/>
      <point x="276" y="662"/>
      <point x="310" y="698"/>
      <point x="310" y="755" type="curve" smooth="yes"/>
      <point x="310" y="814"/>
      <point x="274" y="844"/>
      <point x="221" y="844" type="curve" smooth="yes"/>
      <point x="177" y="844"/>
      <point x="137" y="814"/>
      <point x="137" y="755" type="curve" smooth="yes"/>
      <point x="137" y="698"/>
      <point x="177" y="662"/>
    </contour>
    <contour>
      <point x="386" y="29" type="curve" smooth="yes"/>
      <point x="439" y="29"/>
      <point x="474" y="63"/>
      <point x="474" y="124" type="curve" smooth="yes"/>
      <point x="474" y="179"/>
      <point x="434" y="211"/>
      <point x="386" y="211" type="curve" smooth="yes"/>
      <point x="339" y="211"/>
      <point x="299" y="179"/>
      <point x="299" y="124" type="curve" smooth="yes"/>
      <point x="299" y="63"/>
      <point x="339" y="29"/>
    </contour>
    <contour>
      <point x="386" y="835" type="curve" smooth="yes"/>
      <point x="439" y="835"/>
      <point x="474" y="869"/>
      <point x="474" y="924" type="curve" smooth="yes"/>
      <point x="474" y="985"/>
      <point x="434" y="1015"/>
      <point x="386" y="1015" type="curve" smooth="yes"/>
      <point x="339" y="1015"/>
      <point x="299" y="985"/>
      <point x="299" y="924" type="curve" smooth="yes"/>
      <point x="299" y="869"/>
      <point x="339" y="835"/>
    </contour>
    <contour>
      <point x="610" y="-27" type="curve" smooth="yes"/>
      <point x="662" y="-27"/>
      <point x="698" y="6"/>
      <point x="698" y="65" type="curve" smooth="yes"/>
      <point x="698" y="122"/>
      <point x="660" y="154"/>
      <point x="610" y="154" type="curve" smooth="yes"/>
      <point x="563" y="154"/>
      <point x="523" y="122"/>
      <point x="523" y="65" type="curve" smooth="yes"/>
      <point x="523" y="6"/>
      <point x="563" y="-27"/>
    </contour>
    <contour>
      <point x="610" y="890" type="curve" smooth="yes"/>
      <point x="662" y="890"/>
      <point x="698" y="926"/>
      <point x="698" y="983" type="curve" smooth="yes"/>
      <point x="698" y="1038"/>
      <point x="660" y="1072"/>
      <point x="610" y="1072" type="curve" smooth="yes"/>
      <point x="563" y="1072"/>
      <point x="523" y="1038"/>
      <point x="523" y="983" type="curve" smooth="yes"/>
      <point x="523" y="926"/>
      <point x="563" y="890"/>
    </contour>
    <contour>
      <point x="831" y="29" type="curve" smooth="yes"/>
      <point x="886" y="29"/>
      <point x="922" y="63"/>
      <point x="922" y="124" type="curve" smooth="yes"/>
      <point x="922" y="179"/>
      <point x="880" y="211"/>
      <point x="831" y="211" type="curve" smooth="yes"/>
      <point x="785" y="211"/>
      <point x="745" y="179"/>
      <point x="745" y="124" type="curve" smooth="yes"/>
      <point x="745" y="63"/>
      <point x="785" y="29"/>
    </contour>
    <contour>
      <point x="831" y="833" type="curve" smooth="yes"/>
      <point x="886" y="833"/>
      <point x="922" y="867"/>
      <point x="922" y="924" type="curve" smooth="yes"/>
      <point x="922" y="983"/>
      <point x="880" y="1015"/>
      <point x="831" y="1015" type="curve" smooth="yes"/>
      <point x="785" y="1015"/>
      <point x="745" y="983"/>
      <point x="745" y="924" type="curve" smooth="yes"/>
      <point x="745" y="867"/>
      <point x="785" y="833"/>
    </contour>
    <contour>
      <point x="1000" y="202" type="curve" smooth="yes"/>
      <point x="1051" y="202"/>
      <point x="1087" y="236"/>
      <point x="1087" y="293" type="curve" smooth="yes"/>
      <point x="1087" y="350"/>
      <point x="1047" y="384"/>
      <point x="1000" y="384" type="curve" smooth="yes"/>
      <point x="952" y="384"/>
      <point x="909" y="350"/>
      <point x="909" y="293" type="curve" smooth="yes"/>
      <point x="909" y="236"/>
      <point x="952" y="202"/>
    </contour>
    <contour>
      <point x="1055" y="432" type="curve" smooth="yes"/>
      <point x="1106" y="432"/>
      <point x="1144" y="466"/>
      <point x="1144" y="525" type="curve" smooth="yes"/>
      <point x="1144" y="580"/>
      <point x="1101" y="612"/>
      <point x="1055" y="612" type="curve" smooth="yes"/>
      <point x="1006" y="612"/>
      <point x="966" y="580"/>
      <point x="966" y="525" type="curve" smooth="yes"/>
      <point x="966" y="466"/>
      <point x="1006" y="432"/>
    </contour>
    <contour>
      <point x="1000" y="662" type="curve" smooth="yes"/>
      <point x="1051" y="662"/>
      <point x="1087" y="696"/>
      <point x="1087" y="753" type="curve" smooth="yes"/>
      <point x="1087" y="810"/>
      <point x="1047" y="842"/>
      <point x="1000" y="842" type="curve" smooth="yes"/>
      <point x="952" y="842"/>
      <point x="909" y="810"/>
      <point x="909" y="753" type="curve" smooth="yes"/>
      <point x="909" y="696"/>
      <point x="952" y="662"/>
    </contour>
  </outline>
</glyph>
<glyph name="ya-tifi.neo" format="2">
  <advance width="988"/>
  <unicode hex="2D30"/>
  <outline>
    <contour>
      <point x="510" y="166" type="curve" smooth="yes"/>
      <point x="425" y="166"/>
      <point x="378" y="210"/>
      <point x="378" y="295" type="curve" smooth="yes"/>
      <point x="378" y="348"/>
      <point x="425" y="396"/>
      <point x="490" y="396" type="curve" smooth="yes"/>
      <point x="558" y="396"/>
      <point x="613" y="340"/>
      <point x="613" y="278" type="curve" smooth="yes"/>
      <point x="613" y="205"/>
      <point x="574" y="166"/>
    </contour>
    <contour>
      <point x="454" y="0" type="curve" smooth="yes"/>
      <point x="669" y="0"/>
      <point x="798" y="152"/>
      <point x="798" y="311" type="curve" smooth="yes"/>
      <point x="798" y="450"/>
      <point x="682" y="550"/>
      <point x="528" y="550" type="curve" smooth="yes"/>
      <point x="354" y="550"/>
      <point x="190" y="410"/>
      <point x="190" y="257" type="curve" smooth="yes"/>
      <point x="190" y="115"/>
      <point x="279" y="0"/>
    </contour>
  </outline>
</glyph>
<glyph name="yahBerberAcademy-tifi" format="2">
  <advance width="1454"/>
  <unicode hex="2D41"/>
  <anchor x="736" y="1393" name="T"/>
  <outline>
    <component base="_VerticalOval" xOffset="-8"/>
    <contour>
      <point x="228" y="-30" type="curve" smooth="yes"/>
      <point x="294" y="-30"/>
      <point x="362" y="-16"/>
      <point x="404" y="36" type="curve" smooth="yes"/>
      <point x="481" y="131"/>
      <point x="658" y="380"/>
      <point x="779" y="556" type="curve" smooth="yes"/>
      <point x="941" y="791"/>
      <point x="1175" y="1129"/>
      <point x="1285" y="1265" type="curve" smooth="yes"/>
      <point x="1314" y="1301"/>
      <point x="1330" y="1322"/>
      <point x="1330" y="1345" type="curve" smooth="yes"/>
      <point x="1330" y="1407"/>
      <point x="1254" y="1420"/>
      <point x="1200" y="1420" type="curve" smooth="yes"/>
      <point x="1144" y="1420"/>
      <point x="1071" y="1406"/>
      <point x="1027" y="1352" type="curve" smooth="yes"/>
      <point x="945" y="1251"/>
      <point x="781" y="1018"/>
      <point x="669" y="856" type="curve" smooth="yes"/>
      <point x="497" y="605"/>
      <point x="245" y="245"/>
      <point x="150" y="131" type="curve" smooth="yes"/>
      <point x="115" y="89"/>
      <point x="97" y="67"/>
      <point x="97" y="44" type="curve" smooth="yes"/>
      <point x="97" y="-15"/>
      <point x="177" y="-30"/>
    </contour>
  </outline>
</glyph>
<glyph name="yahh-tifi" format="2">
  <advance width="1372"/>
  <unicode hex="2D43"/>
  <anchor x="686" y="1393" name="T"/>
  <outline>
    <contour>
      <point x="221" y="0" type="curve" smooth="yes"/>
      <point x="287" y="0"/>
      <point x="355" y="14"/>
      <point x="397" y="66" type="curve" smooth="yes"/>
      <point x="474" y="161"/>
      <point x="630" y="380"/>
      <point x="751" y="556" type="curve" smooth="yes"/>
      <point x="913" y="792"/>
      <point x="1127" y="1102"/>
      <point x="1237" y="1238" type="curve" smooth="yes"/>
      <point x="1266" y="1274"/>
      <point x="1282" y="1295"/>
      <point x="1282" y="1318" type="curve" smooth="yes"/>
      <point x="1282" y="1380"/>
      <point x="1206" y="1393"/>
      <point x="1152" y="1393" type="curve" smooth="yes"/>
      <point x="1096" y="1393"/>
      <point x="1023" y="1379"/>
      <point x="979" y="1325" type="curve" smooth="yes"/>
      <point x="897" y="1224"/>
      <point x="753" y="1019"/>
      <point x="641" y="856" type="curve" smooth="yes"/>
      <point x="469" y="605"/>
      <point x="238" y="275"/>
      <point x="143" y="161" type="curve" smooth="yes"/>
      <point x="108" y="119"/>
      <point x="90" y="97"/>
      <point x="90" y="74" type="curve" smooth="yes"/>
      <point x="90" y="15"/>
      <point x="170" y="0"/>
    </contour>
    <contour>
      <point x="783" y="868" type="curve"/>
      <point x="592" y="596" type="line"/>
      <point x="668" y="496"/>
      <point x="744" y="395"/>
      <point x="826" y="280" type="curve" smooth="yes"/>
      <point x="880" y="205"/>
      <point x="909" y="164"/>
      <point x="930" y="132" type="curve" smooth="yes"/>
      <point x="968" y="76"/>
      <point x="965" y="71"/>
      <point x="993" y="27" type="curve" smooth="yes"/>
      <point x="1006" y="6"/>
      <point x="1023" y="0"/>
      <point x="1044" y="0" type="curve" smooth="yes"/>
      <point x="1135" y="0"/>
      <point x="1236" y="111"/>
      <point x="1236" y="212" type="curve" smooth="yes"/>
      <point x="1236" y="257"/>
      <point x="1203" y="303"/>
      <point x="1085" y="467" type="curve" smooth="yes"/>
      <point x="979" y="614"/>
      <point x="883" y="739"/>
    </contour>
  </outline>
</glyph>
<glyph name="yakh-tifi" format="2">
  <advance width="1393"/>
  <unicode hex="2D45"/>
  <anchor x="734" y="1393" name="T"/>
  <outline>
    <contour>
      <point x="1038" y="0" type="curve" smooth="yes"/>
      <point x="1130" y="0"/>
      <point x="1233" y="113"/>
      <point x="1233" y="188" type="curve" smooth="yes"/>
      <point x="1233" y="219"/>
      <point x="1177" y="320"/>
      <point x="1045" y="504" type="curve" smooth="yes"/>
      <point x="882" y="731"/>
      <point x="794" y="828"/>
      <point x="631" y="1057" type="curve" smooth="yes"/>
      <point x="577" y="1133"/>
      <point x="513" y="1229"/>
      <point x="490" y="1260" type="curve" smooth="yes"/>
      <point x="449" y="1315"/>
      <point x="451" y="1322"/>
      <point x="422" y="1365" type="curve" smooth="yes"/>
      <point x="408" y="1385"/>
      <point x="390" y="1393"/>
      <point x="369" y="1393" type="curve" smooth="yes"/>
      <point x="290" y="1393"/>
      <point x="184" y="1291"/>
      <point x="184" y="1179" type="curve" smooth="yes"/>
      <point x="184" y="1132"/>
      <point x="239" y="1054"/>
      <point x="381" y="871" type="curve" smooth="yes"/>
      <point x="553" y="649"/>
      <point x="632" y="546"/>
      <point x="796" y="317" type="curve" smooth="yes"/>
      <point x="850" y="242"/>
      <point x="879" y="201"/>
      <point x="900" y="169" type="curve" smooth="yes"/>
      <point x="938" y="113"/>
      <point x="957" y="71"/>
      <point x="987" y="27" type="curve" smooth="yes"/>
      <point x="1001" y="7"/>
      <point x="1017" y="0"/>
    </contour>
    <contour>
      <point x="678" y="853" type="curve"/>
      <point x="769" y="554" type="line"/>
      <point x="930" y="788"/>
      <point x="1148" y="1102"/>
      <point x="1258" y="1238" type="curve" smooth="yes"/>
      <point x="1287" y="1274"/>
      <point x="1303" y="1295"/>
      <point x="1303" y="1318" type="curve" smooth="yes"/>
      <point x="1303" y="1380"/>
      <point x="1227" y="1393"/>
      <point x="1173" y="1393" type="curve" smooth="yes"/>
      <point x="1117" y="1393"/>
      <point x="1044" y="1379"/>
      <point x="1000" y="1325" type="curve" smooth="yes"/>
      <point x="918" y="1224"/>
      <point x="790" y="1015"/>
    </contour>
    <contour>
      <point x="749" y="556" type="curve"/>
      <point x="639" y="856" type="line"/>
      <point x="467" y="605"/>
      <point x="238" y="275"/>
      <point x="143" y="161" type="curve" smooth="yes"/>
      <point x="108" y="119"/>
      <point x="90" y="97"/>
      <point x="90" y="74" type="curve" smooth="yes"/>
      <point x="90" y="15"/>
      <point x="170" y="0"/>
      <point x="221" y="0" type="curve" smooth="yes"/>
      <point x="287" y="0"/>
      <point x="355" y="14"/>
      <point x="397" y="66" type="curve" smooth="yes"/>
      <point x="474" y="161"/>
      <point x="628" y="380"/>
    </contour>
    <contour>
      <point x="742" y="1413" type="curve" smooth="yes"/>
      <point x="651" y="1413"/>
      <point x="605" y="1346"/>
      <point x="605" y="1235" type="curve" smooth="yes"/>
      <point x="605" y="1098"/>
      <point x="614" y="1093"/>
      <point x="614" y="1010" type="curve" smooth="yes"/>
      <point x="614" y="848"/>
      <point x="607" y="868"/>
      <point x="607" y="829" type="curve" smooth="yes"/>
      <point x="607" y="774"/>
      <point x="655" y="762"/>
      <point x="705" y="762" type="curve" smooth="yes"/>
      <point x="796" y="762"/>
      <point x="842" y="829"/>
      <point x="842" y="940" type="curve" smooth="yes"/>
      <point x="842" y="1077"/>
      <point x="833" y="1095"/>
      <point x="833" y="1178" type="curve" smooth="yes"/>
      <point x="833" y="1340"/>
      <point x="840" y="1307"/>
      <point x="840" y="1346" type="curve" smooth="yes"/>
      <point x="840" y="1401"/>
      <point x="792" y="1413"/>
    </contour>
  </outline>
</glyph>
<glyph name="yal-tifi.neo" format="2">
  <advance width="1229"/>
  <unicode hex="2D4D"/>
  <outline>
    <component base="_VerticalBar" xOffset="129"/>
    <component base="_VerticalBar" xOffset="-385"/>
    <contour>
      <point x="387" y="290" type="curve" smooth="yes"/>
      <point x="424" y="290"/>
      <point x="455" y="309"/>
      <point x="485" y="343" type="curve" smooth="yes"/>
      <point x="503" y="363"/>
      <point x="540" y="414"/>
      <point x="585" y="478" type="curve" smooth="yes"/>
      <point x="669" y="598"/>
      <point x="702" y="662"/>
      <point x="787" y="789" type="curve" smooth="yes"/>
      <point x="839" y="867"/>
      <point x="867" y="907"/>
      <point x="888" y="939" type="curve" smooth="yes"/>
      <point x="922" y="990"/>
      <point x="981" y="1033"/>
      <point x="981" y="1078" type="curve" smooth="yes"/>
      <point x="981" y="1134"/>
      <point x="907" y="1182"/>
      <point x="859" y="1182" type="curve" smooth="yes"/>
      <point x="820" y="1182"/>
      <point x="788" y="1159"/>
      <point x="764" y="1134" type="curve" smooth="yes"/>
      <point x="740" y="1109"/>
      <point x="695" y="1047"/>
      <point x="646" y="977" type="curve" smooth="yes"/>
      <point x="561" y="856"/>
      <point x="516" y="776"/>
      <point x="444" y="667" type="curve" smooth="yes"/>
      <point x="391" y="587"/>
      <point x="375" y="564"/>
      <point x="354" y="532" type="curve" smooth="yes"/>
      <point x="317" y="475"/>
      <point x="262" y="426"/>
      <point x="262" y="392" type="curve" smooth="yes"/>
      <point x="262" y="337"/>
      <point x="338" y="290"/>
    </contour>
  </outline>
</glyph>
<glyph name="yu-tifi.neo" format="2">
  <advance width="988"/>
  <unicode hex="2D53"/>
  <outline>
    <contour>
      <point x="492" y="933" type="curve" smooth="yes"/>
      <point x="415" y="933"/>
      <point x="362" y="976"/>
      <point x="362" y="1062" type="curve" smooth="yes"/>
      <point x="362" y="1122"/>
      <point x="411" y="1157"/>
      <point x="471" y="1157" type="curve" smooth="yes"/>
      <point x="569" y="1157"/>
      <point x="605" y="1097"/>
      <point x="605" y="1034" type="curve" smooth="yes"/>
      <point x="605" y="968"/>
      <point x="569" y="933"/>
    </contour>
    <contour>
      <point x="455" y="770" type="curve" smooth="yes"/>
      <point x="624" y="770"/>
      <point x="795" y="883"/>
      <point x="795" y="1062" type="curve" smooth="yes"/>
      <point x="795" y="1181"/>
      <point x="698" y="1320"/>
      <point x="512" y="1320" type="curve" smooth="yes"/>
      <point x="366" y="1320"/>
      <point x="190" y="1243"/>
      <point x="190" y="1013" type="curve" smooth="yes"/>
      <point x="190" y="864"/>
      <point x="323" y="770"/>
    </contour>
    <contour>
      <point x="506" y="163" type="curve" smooth="yes"/>
      <point x="421" y="163"/>
      <point x="374" y="207"/>
      <point x="374" y="292" type="curve" smooth="yes"/>
      <point x="374" y="345"/>
      <point x="424" y="393"/>
      <point x="489" y="393" type="curve" smooth="yes"/>
      <point x="557" y="393"/>
      <point x="612" y="337"/>
      <point x="612" y="275" type="curve" smooth="yes"/>
      <point x="612" y="202"/>
      <point x="570" y="163"/>
    </contour>
    <contour>
      <point x="454" y="0" type="curve" smooth="yes"/>
      <point x="669" y="0"/>
      <point x="798" y="152"/>
      <point x="798" y="311" type="curve" smooth="yes"/>
      <point x="798" y="450"/>
      <point x="682" y="550"/>
      <point x="528" y="550" type="curve" smooth="yes"/>
      <point x="354" y="550"/>
      <point x="190" y="410"/>
      <point x="190" y="257" type="curve" smooth="yes"/>
      <point x="190" y="115"/>
      <point x="279" y="0"/>
    </contour>
  </outline>
</glyph>
<glyph name="yay-tifi" format="2">
  <advance width="1171"/>
  <unicode hex="2D62"/>
  <anchor x="592" y="1393" name="T"/>
  <outline>
    <contour>
      <point x="831" y="1409" type="curve" smooth="yes"/>
      <point x="777" y="1409"/>
      <point x="718" y="1398"/>
      <point x="669" y="1345" type="curve" smooth="yes"/>
      <point x="577" y="1245"/>
      <point x="463" y="1133"/>
      <point x="356" y="1021" type="curve" smooth="yes"/>
      <point x="259" y="920"/>
      <point x="163" y="819"/>
      <point x="133" y="770" type="curve" smooth="yes"/>
      <point x="112" y="735"/>
      <point x="90" y="698"/>
      <point x="90" y="665" type="curve" smooth="yes"/>
      <point x="90" y="601"/>
      <point x="152" y="562"/>
      <point x="234" y="562" type="curve" smooth="yes"/>
      <point x="402" y="562"/>
      <point x="550" y="569"/>
      <point x="697" y="569" type="curve" smooth="yes"/>
      <point x="771" y="569"/>
      <point x="844" y="567"/>
      <point x="918" y="562" type="curve"/>
      <point x="812" y="712" type="line"/>
      <point x="719" y="591"/>
      <point x="634" y="462"/>
      <point x="564" y="364" type="curve" smooth="yes"/>
      <point x="505" y="282"/>
      <point x="496" y="267"/>
      <point x="458" y="218" type="curve" smooth="yes"/>
      <point x="411" y="158"/>
      <point x="394" y="139"/>
      <point x="372" y="118" type="curve" smooth="yes"/>
      <point x="341" y="88"/>
      <point x="328" y="66"/>
      <point x="328" y="39" type="curve" smooth="yes"/>
      <point x="328" y="10"/>
      <point x="356" y="-34"/>
      <point x="430" y="-34" type="curve" smooth="yes"/>
      <point x="499" y="-34"/>
      <point x="546" y="-17"/>
      <point x="591" y="19" type="curve" smooth="yes"/>
      <point x="637" y="56"/>
      <point x="708" y="144"/>
      <point x="799" y="272" type="curve" smooth="yes"/>
      <point x="899" y="412"/>
      <point x="967" y="514"/>
      <point x="1038" y="610" type="curve" smooth="yes"/>
      <point x="1066" y="648"/>
      <point x="1081" y="676"/>
      <point x="1081" y="719" type="curve" smooth="yes"/>
      <point x="1081" y="762"/>
      <point x="1040" y="821"/>
      <point x="947" y="827" type="curve" smooth="yes"/>
      <point x="905" y="830"/>
      <point x="843" y="831"/>
      <point x="770" y="831" type="curve" smooth="yes"/>
      <point x="626" y="831"/>
      <point x="475" y="824"/>
      <point x="276" y="824" type="curve"/>
      <point x="398" y="688" type="line"/>
      <point x="432" y="735"/>
      <point x="468" y="793"/>
      <point x="491" y="819" type="curve" smooth="yes"/>
      <point x="544" y="881"/>
      <point x="595" y="927"/>
      <point x="648" y="984" type="curve" smooth="yes"/>
      <point x="753" y="1097"/>
      <point x="864" y="1203"/>
      <point x="905" y="1249" type="curve" smooth="yes"/>
      <point x="933" y="1281"/>
      <point x="951" y="1309"/>
      <point x="951" y="1333" type="curve" smooth="yes"/>
      <point x="951" y="1383"/>
      <point x="889" y="1409"/>
    </contour>
  </outline>
</glyph>
<glyph name="yaz-tifi" format="2">
  <advance width="1238"/>
  <unicode hex="2D63"/>
  <anchor x="614" y="1393" name="T"/>
  <outline>
    <contour>
      <point x="623" y="1108" type="curve" smooth="yes"/>
      <point x="481" y="1108"/>
      <point x="350" y="1233"/>
      <point x="350" y="1326" type="curve" smooth="yes"/>
      <point x="350" y="1371"/>
      <point x="308" y="1393"/>
      <point x="263" y="1393" type="curve" smooth="yes"/>
      <point x="137" y="1393"/>
      <point x="90" y="1322"/>
      <point x="90" y="1243" type="curve" smooth="yes"/>
      <point x="90" y="1044"/>
      <point x="287" y="850"/>
      <point x="567" y="850" type="curve" smooth="yes"/>
      <point x="951" y="850"/>
      <point x="1148" y="1239"/>
      <point x="1148" y="1316" type="curve" smooth="yes"/>
      <point x="1148" y="1368"/>
      <point x="1115" y="1393"/>
      <point x="1040" y="1393" type="curve" smooth="yes"/>
      <point x="962" y="1393"/>
      <point x="902" y="1351"/>
      <point x="883" y="1283" type="curve" smooth="yes"/>
      <point x="860" y="1197"/>
      <point x="768" y="1108"/>
    </contour>
    <contour>
      <point x="635" y="285" type="curve" smooth="yes"/>
      <point x="777" y="285"/>
      <point x="888" y="160"/>
      <point x="888" y="67" type="curve" smooth="yes"/>
      <point x="888" y="22"/>
      <point x="920" y="0"/>
      <point x="965" y="0" type="curve" smooth="yes"/>
      <point x="1091" y="0"/>
      <point x="1148" y="71"/>
      <point x="1148" y="150" type="curve" smooth="yes"/>
      <point x="1148" y="349"/>
      <point x="971" y="543"/>
      <point x="691" y="543" type="curve" smooth="yes"/>
      <point x="307" y="543"/>
      <point x="90" y="154"/>
      <point x="90" y="77" type="curve" smooth="yes"/>
      <point x="90" y="25"/>
      <point x="123" y="0"/>
      <point x="198" y="0" type="curve" smooth="yes"/>
      <point x="276" y="0"/>
      <point x="326" y="42"/>
      <point x="345" y="110" type="curve" smooth="yes"/>
      <point x="369" y="196"/>
      <point x="490" y="285"/>
    </contour>
    <contour>
      <point x="588" y="0" type="curve" smooth="yes"/>
      <point x="674" y="0"/>
      <point x="747" y="53"/>
      <point x="766" y="119" type="curve" smooth="yes"/>
      <point x="775" y="151"/>
      <point x="775" y="268"/>
      <point x="775" y="380" type="curve" smooth="yes"/>
      <point x="775" y="660"/>
      <point x="760" y="733"/>
      <point x="760" y="1013" type="curve" smooth="yes"/>
      <point x="760" y="1107"/>
      <point x="761" y="1156"/>
      <point x="761" y="1195" type="curve" smooth="yes"/>
      <point x="761" y="1263"/>
      <point x="771" y="1264"/>
      <point x="771" y="1317" type="curve" smooth="yes"/>
      <point x="771" y="1377"/>
      <point x="717" y="1393"/>
      <point x="639" y="1393" type="curve" smooth="yes"/>
      <point x="553" y="1393"/>
      <point x="480" y="1340"/>
      <point x="461" y="1274" type="curve" smooth="yes"/>
      <point x="452" y="1242"/>
      <point x="452" y="1125"/>
      <point x="452" y="1013" type="curve" smooth="yes"/>
      <point x="452" y="733"/>
      <point x="467" y="660"/>
      <point x="467" y="380" type="curve" smooth="yes"/>
      <point x="467" y="286"/>
      <point x="466" y="237"/>
      <point x="466" y="198" type="curve" smooth="yes"/>
      <point x="466" y="130"/>
      <point x="456" y="129"/>
      <point x="456" y="76" type="curve" smooth="yes"/>
      <point x="456" y="16"/>
      <point x="510" y="0"/>
    </contour>
  </outline>
</glyph>
<glyph name="separator-tifi" format="2">
  <advance width="973"/>
  <unicode hex="2D70"/>
  <outline>
    <contour>
      <point x="665" y="1218" type="curve"/>
      <point x="545" y="-70"/>
      <point x="275" y="-456"/>
      <point x="-582" y="-696" type="curve" smooth="yes"/>
      <point x="-607" y="-703"/>
      <point x="-629" y="-709"/>
      <point x="-629" y="-711" type="curve"/>
      <point x="-629" y="-713"/>
      <point x="-608" y="-710"/>
      <point x="-583" y="-707" type="curve" smooth="yes"/>
      <point x="561" y="-554"/>
      <point x="820" y="-224"/>
      <point x="974" y="1322" type="curve" smooth="yes"/>
      <point x="982" y="1398"/>
      <point x="951" y="1419"/>
      <point x="880" y="1419" type="curve" smooth="yes"/>
      <point x="765" y="1419"/>
      <point x="665" y="1339"/>
    </contour>
  </outline>
</glyph>
<glyph name="_AltIndicator" format="2">
  <advance width="1001"/>
  <outline>
    <contour>
      <point x="194" y="1726" type="line"/>
      <point x="264" y="1711" type="line"/>
      <point x="293" y="1767" type="line"/>
      <point x="237" y="1794" type="line"/>
      <point x="189" y="1742" type="line"/>
    </contour>
    <contour>
      <point x="178" y="1752" type="line"/>
      <point x="214" y="1813" type="line"/>
      <point x="170" y="1858" type="line"/>
      <point x="127" y="1813" type="line"/>
      <point x="162" y="1752" type="line"/>
    </contour>
    <contour>
      <point x="177" y="1704" type="line"/>
      <point x="184" y="1634" type="line"/>
      <point x="246" y="1623" type="line"/>
      <point x="254" y="1685" type="line"/>
      <point x="190" y="1714" type="line"/>
    </contour>
    <contour>
      <point x="151" y="1742" type="line"/>
      <point x="104" y="1795" type="line"/>
      <point x="48" y="1767" type="line"/>
      <point x="77" y="1712" type="line"/>
      <point x="146" y="1727" type="line"/>
    </contour>
    <contour>
      <point x="150" y="1714" type="line"/>
      <point x="85" y="1686" type="line"/>
      <point x="94" y="1624" type="line"/>
      <point x="155" y="1635" type="line"/>
      <point x="163" y="1705" type="line"/>
    </contour>
  </outline>
</glyph>
<glyph name="_HorizontalBarMedShort2" format="2">
  <advance width="1470"/>
  <outline>
    <contour>
      <point x="601" y="-45" type="curve" smooth="yes"/>
      <point x="661" y="-45"/>
      <point x="675" y="-3"/>
      <point x="675" y="55" type="curve" smooth="yes"/>
      <point x="675" y="146"/>
      <point x="619" y="178"/>
      <point x="552" y="187" type="curve" smooth="yes"/>
      <point x="519" y="191"/>
      <point x="443" y="191"/>
      <point x="331" y="191" type="curve" smooth="yes"/>
      <point x="318" y="191" type="line" smooth="yes"/>
      <point x="224" y="191"/>
      <point x="235" y="189"/>
      <point x="196" y="189" type="curve" smooth="yes"/>
      <point x="128" y="189"/>
      <point x="127" y="197"/>
      <point x="74" y="197" type="curve" smooth="yes"/>
      <point x="14" y="197"/>
      <point x="0" y="155"/>
      <point x="0" y="97" type="curve" smooth="yes"/>
      <point x="0" y="6"/>
      <point x="56" y="-26"/>
      <point x="123" y="-35" type="curve" smooth="yes"/>
      <point x="156" y="-39"/>
      <point x="212" y="-39"/>
      <point x="324" y="-39" type="curve" smooth="yes"/>
      <point x="337" y="-39" type="line" smooth="yes"/>
      <point x="431" y="-39"/>
      <point x="440" y="-37"/>
      <point x="479" y="-37" type="curve" smooth="yes"/>
      <point x="547" y="-37"/>
      <point x="548" y="-45"/>
    </contour>
  </outline>
</glyph>
<glyph name="_Plus" format="2">
  <advance width="1450"/>
  <outline>
    <contour>
      <point x="43" y="280" type="curve" smooth="yes"/>
      <point x="163" y="280"/>
      <point x="395" y="289"/>
      <point x="506" y="289" type="curve" smooth="yes"/>
      <point x="668" y="289"/>
      <point x="634" y="280"/>
      <point x="673" y="280" type="curve" smooth="yes"/>
      <point x="728" y="280"/>
      <point x="742" y="325"/>
      <point x="742" y="355" type="curve" smooth="yes"/>
      <point x="742" y="437"/>
      <point x="691" y="483"/>
      <point x="609" y="483" type="curve" smooth="yes"/>
      <point x="489" y="483"/>
      <point x="257" y="474"/>
      <point x="146" y="474" type="curve" smooth="yes"/>
      <point x="-16" y="474"/>
      <point x="18" y="483"/>
      <point x="-21" y="483" type="curve" smooth="yes"/>
      <point x="-66" y="483"/>
      <point x="-90" y="458"/>
      <point x="-90" y="408" type="curve" smooth="yes"/>
      <point x="-90" y="326"/>
      <point x="-39" y="280"/>
    </contour>
    <contour>
      <point x="426" y="55" type="curve" smooth="yes"/>
      <point x="497" y="55"/>
      <point x="563" y="122"/>
      <point x="563" y="233" type="curve" smooth="yes"/>
      <point x="563" y="370"/>
      <point x="554" y="388"/>
      <point x="554" y="471" type="curve" smooth="yes"/>
      <point x="554" y="633"/>
      <point x="561" y="600"/>
      <point x="561" y="639" type="curve" smooth="yes"/>
      <point x="561" y="694"/>
      <point x="513" y="706"/>
      <point x="463" y="706" type="curve" smooth="yes"/>
      <point x="387" y="706"/>
      <point x="326" y="639"/>
      <point x="326" y="528" type="curve" smooth="yes"/>
      <point x="326" y="391"/>
      <point x="335" y="386"/>
      <point x="335" y="303" type="curve" smooth="yes"/>
      <point x="335" y="141"/>
      <point x="328" y="161"/>
      <point x="328" y="122" type="curve" smooth="yes"/>
      <point x="328" y="67"/>
      <point x="376" y="55"/>
    </contour>
  </outline>
</glyph>
<glyph name="_PlusLong.rtl" format="2">
  <advance width="1450"/>
  <outline>
    <contour>
      <point x="-137" y="278" type="curve" smooth="yes"/>
      <point x="-17" y="278"/>
      <point x="395" y="287"/>
      <point x="506" y="287" type="curve" smooth="yes"/>
      <point x="668" y="287"/>
      <point x="634" y="278"/>
      <point x="673" y="278" type="curve" smooth="yes"/>
      <point x="718" y="278"/>
      <point x="742" y="303"/>
      <point x="742" y="353" type="curve" smooth="yes"/>
      <point x="742" y="435"/>
      <point x="691" y="481"/>
      <point x="609" y="481" type="curve" smooth="yes"/>
      <point x="489" y="481"/>
      <point x="77" y="472"/>
      <point x="-34" y="472" type="curve" smooth="yes"/>
      <point x="-196" y="472"/>
      <point x="-162" y="481"/>
      <point x="-201" y="481" type="curve" smooth="yes"/>
      <point x="-256" y="481"/>
      <point x="-270" y="436"/>
      <point x="-270" y="406" type="curve" smooth="yes"/>
      <point x="-270" y="324"/>
      <point x="-219" y="278"/>
    </contour>
    <contour>
      <point x="9" y="55" type="curve" smooth="yes"/>
      <point x="80" y="55"/>
      <point x="146" y="122"/>
      <point x="146" y="233" type="curve" smooth="yes"/>
      <point x="146" y="370"/>
      <point x="137" y="388"/>
      <point x="137" y="471" type="curve" smooth="yes"/>
      <point x="137" y="633"/>
      <point x="144" y="600"/>
      <point x="144" y="639" type="curve" smooth="yes"/>
      <point x="144" y="694"/>
      <point x="96" y="706"/>
      <point x="46" y="706" type="curve" smooth="yes"/>
      <point x="-30" y="706"/>
      <point x="-91" y="639"/>
      <point x="-91" y="528" type="curve" smooth="yes"/>
      <point x="-91" y="391"/>
      <point x="-82" y="386"/>
      <point x="-82" y="303" type="curve" smooth="yes"/>
      <point x="-82" y="141"/>
      <point x="-89" y="161"/>
      <point x="-89" y="122" type="curve" smooth="yes"/>
      <point x="-89" y="67"/>
      <point x="-41" y="55"/>
    </contour>
  </outline>
</glyph>
<glyph name="_PlusMediumExtended" format="2">
  <advance width="1457"/>
  <outline>
    <contour>
      <point x="123" y="225" type="curve" smooth="yes"/>
      <point x="253" y="225"/>
      <point x="451" y="234"/>
      <point x="562" y="234" type="curve" smooth="yes"/>
      <point x="689" y="234"/>
      <point x="685" y="225"/>
      <point x="724" y="225" type="curve" smooth="yes"/>
      <point x="779" y="225"/>
      <point x="793" y="255"/>
      <point x="793" y="285" type="curve" smooth="yes"/>
      <point x="793" y="382"/>
      <point x="752" y="428"/>
      <point x="670" y="428" type="curve" smooth="yes"/>
      <point x="540" y="428"/>
      <point x="337" y="419"/>
      <point x="226" y="419" type="curve" smooth="yes"/>
      <point x="114" y="419"/>
      <point x="98" y="428"/>
      <point x="59" y="428" type="curve" smooth="yes"/>
      <point x="14" y="428"/>
      <point x="-10" y="408"/>
      <point x="-10" y="358" type="curve" smooth="yes"/>
      <point x="-10" y="261"/>
      <point x="41" y="225"/>
    </contour>
    <contour>
      <point x="434" y="0" type="curve" smooth="yes"/>
      <point x="520" y="0"/>
      <point x="591" y="67"/>
      <point x="591" y="178" type="curve" smooth="yes"/>
      <point x="591" y="315"/>
      <point x="582" y="333"/>
      <point x="582" y="416" type="curve" smooth="yes"/>
      <point x="582" y="578"/>
      <point x="589" y="545"/>
      <point x="589" y="584" type="curve" smooth="yes"/>
      <point x="589" y="629"/>
      <point x="561" y="651"/>
      <point x="511" y="651" type="curve" smooth="yes"/>
      <point x="425" y="651"/>
      <point x="354" y="584"/>
      <point x="354" y="473" type="curve" smooth="yes"/>
      <point x="354" y="336"/>
      <point x="363" y="331"/>
      <point x="363" y="248" type="curve" smooth="yes"/>
      <point x="363" y="86"/>
      <point x="356" y="106"/>
      <point x="356" y="67" type="curve" smooth="yes"/>
      <point x="356" y="22"/>
      <point x="384" y="0"/>
    </contour>
  </outline>
</glyph>
<glyph name="_PlusMediumHorizontal" format="2">
  <advance width="1470"/>
  <outline>
    <contour>
      <point x="133" y="225" type="curve" smooth="yes"/>
      <point x="263" y="225"/>
      <point x="385" y="234"/>
      <point x="496" y="234" type="curve" smooth="yes"/>
      <point x="628" y="234"/>
      <point x="614" y="225"/>
      <point x="653" y="225" type="curve" smooth="yes"/>
      <point x="708" y="225"/>
      <point x="722" y="255"/>
      <point x="722" y="285" type="curve" smooth="yes"/>
      <point x="722" y="382"/>
      <point x="681" y="428"/>
      <point x="599" y="428" type="curve" smooth="yes"/>
      <point x="479" y="428"/>
      <point x="347" y="419"/>
      <point x="236" y="419" type="curve" smooth="yes"/>
      <point x="124" y="419"/>
      <point x="108" y="428"/>
      <point x="69" y="428" type="curve" smooth="yes"/>
      <point x="24" y="428"/>
      <point x="0" y="408"/>
      <point x="0" y="358" type="curve" smooth="yes"/>
      <point x="0" y="261"/>
      <point x="41" y="225"/>
    </contour>
  </outline>
</glyph>
<glyph name="_PlusVertical" format="2">
  <advance width="1470"/>
  <outline>
    <contour>
      <point x="53" y="-2" type="curve" smooth="yes"/>
      <point x="144" y="-2"/>
      <point x="240" y="65"/>
      <point x="240" y="186" type="curve" smooth="yes"/>
      <point x="240" y="323"/>
      <point x="231" y="441"/>
      <point x="231" y="524" type="curve" smooth="yes"/>
      <point x="231" y="686"/>
      <point x="238" y="645"/>
      <point x="238" y="691" type="curve" smooth="yes"/>
      <point x="238" y="746"/>
      <point x="200" y="767"/>
      <point x="150" y="767" type="curve" smooth="yes"/>
      <point x="60" y="767"/>
      <point x="-37" y="700"/>
      <point x="-37" y="579" type="curve" smooth="yes"/>
      <point x="-37" y="442"/>
      <point x="-28" y="324"/>
      <point x="-28" y="241" type="curve" smooth="yes"/>
      <point x="-28" y="79"/>
      <point x="-35" y="120"/>
      <point x="-35" y="74" type="curve" smooth="yes"/>
      <point x="-35" y="19"/>
      <point x="3" y="-2"/>
    </contour>
  </outline>
</glyph>
<glyph name="_PlusVeryLong" format="2">
  <advance width="1460"/>
  <outline>
    <contour>
      <point x="-252" y="280" type="curve" smooth="yes"/>
      <point x="-132" y="280"/>
      <point x="391" y="289"/>
      <point x="502" y="289" type="curve" smooth="yes"/>
      <point x="664" y="289"/>
      <point x="630" y="280"/>
      <point x="669" y="280" type="curve" smooth="yes"/>
      <point x="724" y="280"/>
      <point x="738" y="325"/>
      <point x="738" y="355" type="curve" smooth="yes"/>
      <point x="738" y="437"/>
      <point x="687" y="483"/>
      <point x="605" y="483" type="curve" smooth="yes"/>
      <point x="485" y="483"/>
      <point x="-38" y="474"/>
      <point x="-149" y="474" type="curve" smooth="yes"/>
      <point x="-311" y="474"/>
      <point x="-277" y="483"/>
      <point x="-316" y="483" type="curve" smooth="yes"/>
      <point x="-361" y="483"/>
      <point x="-385" y="458"/>
      <point x="-385" y="408" type="curve" smooth="yes"/>
      <point x="-385" y="326"/>
      <point x="-334" y="280"/>
    </contour>
    <contour>
      <point x="422" y="55" type="curve" smooth="yes"/>
      <point x="493" y="55"/>
      <point x="559" y="122"/>
      <point x="559" y="233" type="curve" smooth="yes"/>
      <point x="559" y="370"/>
      <point x="550" y="388"/>
      <point x="550" y="471" type="curve" smooth="yes"/>
      <point x="550" y="633"/>
      <point x="557" y="600"/>
      <point x="557" y="639" type="curve" smooth="yes"/>
      <point x="557" y="694"/>
      <point x="509" y="706"/>
      <point x="459" y="706" type="curve" smooth="yes"/>
      <point x="378" y="706"/>
      <point x="322" y="639"/>
      <point x="322" y="528" type="curve" smooth="yes"/>
      <point x="322" y="391"/>
      <point x="331" y="386"/>
      <point x="331" y="303" type="curve" smooth="yes"/>
      <point x="331" y="141"/>
      <point x="324" y="161"/>
      <point x="324" y="122" type="curve" smooth="yes"/>
      <point x="324" y="67"/>
      <point x="372" y="55"/>
    </contour>
  </outline>
</glyph>
<glyph name="_PlusVeryLong.rtl" format="2">
  <advance width="1460"/>
  <outline>
    <contour>
      <point x="605" y="481" type="curve" smooth="yes"/>
      <point x="485" y="481"/>
      <point x="-38" y="472"/>
      <point x="-149" y="472" type="curve" smooth="yes"/>
      <point x="-311" y="472"/>
      <point x="-277" y="481"/>
      <point x="-316" y="481" type="curve" smooth="yes"/>
      <point x="-371" y="481"/>
      <point x="-385" y="436"/>
      <point x="-385" y="406" type="curve" smooth="yes"/>
      <point x="-385" y="324"/>
      <point x="-334" y="278"/>
      <point x="-252" y="278" type="curve" smooth="yes"/>
      <point x="-132" y="278"/>
      <point x="391" y="287"/>
      <point x="502" y="287" type="curve" smooth="yes"/>
      <point x="664" y="287"/>
      <point x="630" y="278"/>
      <point x="669" y="278" type="curve" smooth="yes"/>
      <point x="714" y="278"/>
      <point x="738" y="303"/>
      <point x="738" y="353" type="curve" smooth="yes"/>
      <point x="738" y="435"/>
      <point x="687" y="481"/>
    </contour>
    <contour>
      <point x="-106" y="55" type="curve" smooth="yes"/>
      <point x="-35" y="55"/>
      <point x="31" y="122"/>
      <point x="31" y="233" type="curve" smooth="yes"/>
      <point x="31" y="370"/>
      <point x="22" y="388"/>
      <point x="22" y="471" type="curve" smooth="yes"/>
      <point x="22" y="633"/>
      <point x="29" y="600"/>
      <point x="29" y="639" type="curve" smooth="yes"/>
      <point x="29" y="694"/>
      <point x="-19" y="706"/>
      <point x="-69" y="706" type="curve" smooth="yes"/>
      <point x="-145" y="706"/>
      <point x="-206" y="639"/>
      <point x="-206" y="528" type="curve" smooth="yes"/>
      <point x="-206" y="391"/>
      <point x="-197" y="386"/>
      <point x="-197" y="303" type="curve" smooth="yes"/>
      <point x="-197" y="141"/>
      <point x="-204" y="161"/>
      <point x="-204" y="122" type="curve" smooth="yes"/>
      <point x="-204" y="67"/>
      <point x="-156" y="55"/>
    </contour>
  </outline>
</glyph>
<glyph name="_VerticalBarMedLong" format="2">
  <advance width="1470"/>
  <outline>
    <contour>
      <point x="63" y="0" type="curve" smooth="yes"/>
      <point x="149" y="0"/>
      <point x="226" y="53"/>
      <point x="245" y="119" type="curve" smooth="yes"/>
      <point x="252" y="144"/>
      <point x="253" y="197"/>
      <point x="253" y="256" type="curve" smooth="yes"/>
      <point x="253" y="337"/>
      <point x="245" y="440"/>
      <point x="245" y="514" type="curve" smooth="yes"/>
      <point x="245" y="560"/>
      <point x="246" y="596"/>
      <point x="246" y="642" type="curve" smooth="yes"/>
      <point x="246" y="710"/>
      <point x="257" y="711"/>
      <point x="257" y="764" type="curve" smooth="yes"/>
      <point x="257" y="824"/>
      <point x="194" y="840"/>
      <point x="116" y="840" type="curve" smooth="yes"/>
      <point x="30" y="840"/>
      <point x="-47" y="787"/>
      <point x="-66" y="721" type="curve" smooth="yes"/>
      <point x="-73" y="696"/>
      <point x="-74" y="643"/>
      <point x="-74" y="584" type="curve" smooth="yes"/>
      <point x="-74" y="503"/>
      <point x="-66" y="400"/>
      <point x="-66" y="326" type="curve" smooth="yes"/>
      <point x="-66" y="264"/>
      <point x="-67" y="244"/>
      <point x="-67" y="198" type="curve" smooth="yes"/>
      <point x="-67" y="130"/>
      <point x="-78" y="129"/>
      <point x="-78" y="76" type="curve" smooth="yes"/>
      <point x="-78" y="16"/>
      <point x="-15" y="0"/>
    </contour>
  </outline>
</glyph>
<glyph name="_VerticalBarSmall" format="2">
  <advance width="1470"/>
  <outline>
    <contour>
      <point x="63" y="-2" type="curve" smooth="yes"/>
      <point x="149" y="-2"/>
      <point x="228" y="51"/>
      <point x="245" y="117" type="curve" smooth="yes"/>
      <point x="253" y="146"/>
      <point x="255" y="174"/>
      <point x="255" y="206" type="curve" smooth="yes"/>
      <point x="255" y="264"/>
      <point x="249" y="286"/>
      <point x="249" y="344" type="curve" smooth="yes"/>
      <point x="249" y="505"/>
      <point x="261" y="465"/>
      <point x="261" y="511" type="curve" smooth="yes"/>
      <point x="261" y="571"/>
      <point x="198" y="587"/>
      <point x="120" y="587" type="curve" smooth="yes"/>
      <point x="34" y="587"/>
      <point x="-43" y="534"/>
      <point x="-61" y="468" type="curve" smooth="yes"/>
      <point x="-69" y="439"/>
      <point x="-71" y="411"/>
      <point x="-71" y="379" type="curve" smooth="yes"/>
      <point x="-71" y="321"/>
      <point x="-65" y="299"/>
      <point x="-65" y="241" type="curve" smooth="yes"/>
      <point x="-65" y="80"/>
      <point x="-77" y="120"/>
      <point x="-77" y="74" type="curve" smooth="yes"/>
      <point x="-77" y="14"/>
      <point x="-15" y="-2"/>
    </contour>
  </outline>
</glyph>
<glyph name="brevecmb.cap" format="2">
  <anchor x="0" y="1422" name="_aboveUC"/>
  <outline>
    <contour>
      <point x="0" y="1473" type="curve" smooth="yes"/>
      <point x="208" y="1473"/>
      <point x="322" y="1574"/>
      <point x="344" y="1760" type="curve"/>
      <point x="175" y="1790" type="line"/>
      <point x="158" y="1701"/>
      <point x="94" y="1648"/>
      <point x="0" y="1648" type="curve" smooth="yes"/>
      <point x="-94" y="1648"/>
      <point x="-158" y="1701"/>
      <point x="-175" y="1790" type="curve"/>
      <point x="-344" y="1760" type="line"/>
      <point x="-322" y="1574"/>
      <point x="-208" y="1473"/>
    </contour>
  </outline>
</glyph>
<glyph name="caroncmb.cap" format="2">
  <anchor x="0" y="1422" name="_aboveUC"/>
  <outline>
    <contour>
      <point x="-164" y="1481" type="line"/>
      <point x="164" y="1481" type="line"/>
      <point x="356" y="1716" type="line"/>
      <point x="223" y="1796" type="line"/>
      <point x="4" y="1619" type="line"/>
      <point x="-4" y="1619" type="line"/>
      <point x="-223" y="1796" type="line"/>
      <point x="-356" y="1716" type="line"/>
    </contour>
  </outline>
</glyph>
<glyph name="circumflexcmb.cap" format="2">
  <anchor x="0" y="1422" name="_aboveUC"/>
  <outline>
    <contour>
      <point x="-223" y="1448" type="line"/>
      <point x="-4" y="1625" type="line"/>
      <point x="4" y="1625" type="line"/>
      <point x="223" y="1448" type="line"/>
      <point x="356" y="1528" type="line"/>
      <point x="164" y="1762" type="line"/>
      <point x="-164" y="1762" type="line"/>
      <point x="-356" y="1528" type="line"/>
    </contour>
  </outline>
</glyph>
<glyph name="four.dnom" format="2">
  <advance width="793"/>
  <outline>
    <contour>
      <point x="451" y="0" type="line"/>
      <point x="650" y="0" type="line"/>
      <point x="650" y="823" type="line"/>
      <point x="373" y="823" type="line"/>
      <point x="73" y="295" type="line"/>
      <point x="73" y="183" type="line"/>
      <point x="772" y="183" type="line"/>
      <point x="772" y="331" type="line"/>
      <point x="280" y="331" type="line"/>
      <point x="371" y="502" type="line"/>
      <point x="455" y="667" type="line"/>
      <point x="464" y="667" type="line"/>
      <point x="451" y="420" type="line"/>
    </contour>
  </outline>
</glyph>
<glyph name="o.sups" format="2">
  <advance width="785"/>
  <outline>
    <contour>
      <point x="392" y="776" type="curve" smooth="yes"/>
      <point x="572" y="776"/>
      <point x="734" y="911"/>
      <point x="734" y="1139" type="curve" smooth="yes"/>
      <point x="734" y="1370"/>
      <point x="572" y="1505"/>
      <point x="392" y="1505" type="curve" smooth="yes"/>
      <point x="213" y="1505"/>
      <point x="50" y="1370"/>
      <point x="50" y="1139" type="curve" smooth="yes"/>
      <point x="50" y="911"/>
      <point x="213" y="776"/>
    </contour>
    <contour>
      <point x="392" y="947" type="curve" smooth="yes"/>
      <point x="308" y="947"/>
      <point x="270" y="1023"/>
      <point x="270" y="1139" type="curve" smooth="yes"/>
      <point x="270" y="1258"/>
      <point x="308" y="1334"/>
      <point x="392" y="1334" type="curve" smooth="yes"/>
      <point x="477" y="1334"/>
      <point x="515" y="1258"/>
      <point x="515" y="1139" type="curve" smooth="yes"/>
      <point x="515" y="1023"/>
      <point x="477" y="947"/>
    </contour>
  </outline>
</glyph>
<glyph name="one.dnom" format="2">
  <advance width="793"/>
  <outline>
    <contour>
      <point x="348" y="0" type="line"/>
      <point x="574" y="0" type="line"/>
      <point x="574" y="823" type="line"/>
      <point x="396" y="823" type="line"/>
      <point x="327" y="774"/>
      <point x="274" y="749"/>
      <point x="162" y="732" type="curve"/>
      <point x="162" y="595" type="line"/>
      <point x="348" y="595" type="line"/>
    </contour>
  </outline>
</glyph>
<glyph name="ringcmb.cap" format="2">
  <anchor x="0" y="1422" name="_aboveUC"/>
  <outline>
    <contour>
      <point x="0" y="1471" type="curve" smooth="yes"/>
      <point x="175" y="1471"/>
      <point x="276" y="1551"/>
      <point x="276" y="1678" type="curve" smooth="yes"/>
      <point x="276" y="1804"/>
      <point x="175" y="1887"/>
      <point x="0" y="1887" type="curve" smooth="yes"/>
      <point x="-175" y="1887"/>
      <point x="-276" y="1804"/>
      <point x="-276" y="1678" type="curve" smooth="yes"/>
      <point x="-276" y="1551"/>
      <point x="-175" y="1471"/>
    </contour>
    <contour>
      <point x="0" y="1581" type="curve" smooth="yes"/>
      <point x="-56" y="1581"/>
      <point x="-92" y="1621"/>
      <point x="-92" y="1678" type="curve" smooth="yes"/>
      <point x="-92" y="1737"/>
      <point x="-56" y="1775"/>
      <point x="0" y="1775" type="curve" smooth="yes"/>
      <point x="56" y="1775"/>
      <point x="92" y="1737"/>
      <point x="92" y="1678" type="curve" smooth="yes"/>
      <point x="92" y="1621"/>
      <point x="56" y="1581"/>
    </contour>
  </outline>
</glyph>
<glyph name="two.dnom" format="2">
  <advance width="793"/>
  <outline>
    <contour>
      <point x="94" y="0" type="line"/>
      <point x="705" y="0" type="line"/>
      <point x="705" y="187" type="line"/>
      <point x="451" y="187" type="line"/>
      <point x="569" y="318"/>
      <point x="673" y="434"/>
      <point x="673" y="569" type="curve" smooth="yes"/>
      <point x="673" y="747"/>
      <point x="553" y="848"/>
      <point x="371" y="848" type="curve" smooth="yes"/>
      <point x="244" y="848"/>
      <point x="141" y="789"/>
      <point x="56" y="679" type="curve"/>
      <point x="185" y="563" type="line"/>
      <point x="232" y="624"/>
      <point x="278" y="664"/>
      <point x="335" y="664" type="curve" smooth="yes"/>
      <point x="411" y="664"/>
      <point x="458" y="614"/>
      <point x="458" y="531" type="curve" smooth="yes"/>
      <point x="458" y="430"/>
      <point x="308" y="295"/>
      <point x="94" y="120" type="curve"/>
    </contour>
  </outline>
</glyph>
<glyph name="zero.dnom" format="2">
  <advance width="793"/>
  <outline>
    <contour>
      <point x="396" y="-25" type="curve" smooth="yes"/>
      <point x="595" y="-25"/>
      <point x="738" y="137"/>
      <point x="738" y="413" type="curve" smooth="yes"/>
      <point x="738" y="688"/>
      <point x="595" y="848"/>
      <point x="396" y="848" type="curve" smooth="yes"/>
      <point x="198" y="848"/>
      <point x="54" y="688"/>
      <point x="54" y="413" type="curve" smooth="yes"/>
      <point x="54" y="137"/>
      <point x="198" y="-25"/>
    </contour>
    <contour>
      <point x="396" y="145" type="curve" smooth="yes"/>
      <point x="325" y="145"/>
      <point x="268" y="217"/>
      <point x="268" y="413" type="curve" smooth="yes"/>
      <point x="268" y="610"/>
      <point x="325" y="677"/>
      <point x="396" y="677" type="curve" smooth="yes"/>
      <point x="468" y="677"/>
      <point x="525" y="610"/>
      <point x="525" y="413" type="curve" smooth="yes"/>
      <point x="525" y="217"/>
      <point x="468" y="145"/>
    </contour>
  </outline>
</glyph>
